M48
;Layer_Color=9474304
;FILE_FORMAT=4:4
METRIC,LZ
;TYPE=PLATED
T1F00S00C0.3000
T2F00S00C0.6000
T3F00S00C3.0000
%
T01
X01337Y01181
X01351
Y01195
X01365
X01379
Y01181
X01365
X01393
X01407
X01421
X01435
X01449
Y01195
Y01209
Y01234
Y01248
Y01262
Y01276
Y0129
X01435Y01276
Y01262
X01421
X01418Y01299
X01377Y01296
Y0131
X01363
X01349
X01335
Y01296
X01349
X01363
X01335Y01254
X01321
X01307
Y01268
X01321
Y01282
X01307
Y01296
X01321
Y0131
X01307
X01309Y01235
Y01201
X01271285Y012105
X01247Y01213
Y01199
X01233
X01219
X01205
X01191
X01177
X01163
X01149
X01135
X01121
X01095Y01198
X01039Y01209
X01042Y01229
X01043Y01249
Y01263
Y01277
Y01291
Y01305
Y01319
Y01333
X01065Y01327
X01067772Y01292722
X01062Y01272
X01078Y01262
X01132Y01243
X01146
X0116
X01174
X01188
X01202
Y01257
Y01271
Y01285
Y01299
Y01313
Y01327
X01123Y01324
Y0131
X01109
X01149Y01213
X01163
X01177
X01191
X01205
X01219
X01233
X0123Y01243
X01216
X01244
X01258
X01272
X0126Y01182
X01003Y0120395
Y0121665
X00985Y01217
X0096Y01231
X00961Y01267
Y01281
Y01295
Y01309
Y01323
X00943Y01321
Y0128
X00931Y01265
X00933Y013
X00878Y01299
X0088Y01312
X00858Y01302
X00856Y01275
X00834Y01247
X00851Y01211
X00869Y01199
X00905Y01215
X00801Y01224
X00772Y01257
X00777476Y01272
X00786
X0077Y01287
X0078Y01301
X00758Y01245
X00742Y01177
X00728
X00714
X007
X00686
X00672
Y01191
Y01205
Y01219
Y01233
Y01247
X00664Y01387
X0069Y014
X00722Y01401
Y01441
X0074
X00705Y01442
X0069Y01487
Y01504
X00704Y01522
X00727Y01521
X00729Y01543
X00772
Y01506
X00774Y01497
X00784Y01492
X00795Y01489
X00803Y01495
X00804Y01471
X00773697Y01472697
X00761Y01482
X00764294Y01491
X00753078Y01504922
X00754Y01475
X00765Y01407
X00777294Y01375
X00792Y01379
X00766452Y01360295
X0075Y01354
X00737Y01366
X00706Y01367
X00813Y01408
X00808Y01417
X00829Y01409
X00864Y01414
X00884Y01403
X00899Y01406
X00895Y01378
X00911Y01381
Y013683
X00906Y01352
X00879Y01347
X00861Y01349
X00862Y01362
X00858Y01379
X00862Y01466
X00864Y01506
X00854259Y01505741
X00841Y01513
X00820843Y01522555
X00835Y01567
X00852Y01600724
X00873Y01608
X00894Y01604
X00893Y01643
X00877Y01642
X00869Y01651
X00834Y01653
Y01679
X00851Y01695
X00865
Y01709
Y01723
X00851
Y01709
X00837
Y01722
X00881Y01719
X00877Y01689
X00913Y01707
X00931Y0172
X00914Y01639
X00925Y015319
X00935Y01511
X00936Y01466
X00884Y01444
X00877Y01527
X0078Y01577
X0076696Y01588
X00768Y016
X00756Y01572
X00686294Y01538
X00686Y01687
X00672
Y01701
Y01715
Y01729
X00758
X00777
X00749Y01708
X00965Y01704
Y0169
Y01676
Y01662
Y01648
Y01634
Y0162
Y01606
X00979
X00978Y01596
X00965Y01592
X00993
Y01606
X01007
X01021
X01035
Y01592
X01021
X01007
X0102Y01571
X01024Y0153
X01038
X01047Y01526
Y01512
Y01498
Y01484
Y0147
Y01456
Y01442
X01065Y01451
X01064Y01482
X01068Y01514
X0111Y01515
X01108Y01526
X01122
X01136
X0115
X01164
X01178
X01192
X01206
Y0154
X01192
X01178
X01164
X0115
X01136
X01122
X01123Y01512
Y01498
Y01484
X01109
X01132Y01417
X01146
X0116
X01174
X01188
X01202
X01216
X0123
X01244
X01258
X01272
X01265Y01408
X01251
X01237
X01223
X01209
X01195
X01181
X01167
X01153
X0115Y01366
X01164
X01178
X01192
X01206
X0122
X01234
X01248
X012745Y013605
X01307Y01344
X01321
X01309944Y01409624
X01304Y01422
Y01436
X01318
Y0145
X01304
Y01464
X01318
Y01478
X01304
Y01492
Y0152
X01318
X01332
X01326Y01506
X012745Y01535
X01248Y0154
X01234
X0122
X01202Y01515
Y01501
Y01487
Y01473
Y01459
Y01445
Y01431
X01206Y01352
X01192
X01178
X01164
X0115
X01136
Y01366
X01122
Y01352
X01108
X0111Y01341
X01123Y01338
X01202Y01341
X01043Y01347
X01038Y01354
X01024
X01028Y01363
X01015Y01362
X0101Y01354
X00996
X01Y01367
Y01394
X01014
X01019Y01417
Y01428
X01033
Y01417
X01005
Y01428
X00991
Y01417
X00977
Y01428
X00963
Y01417
Y01442
Y01456
Y0147
Y01484
Y01498
Y01512
X00938Y01532
X00945Y01576
X00944Y01622
X01045Y01626
Y0164
Y01654
Y01668
Y01682
Y01696
X01032Y017
X01031Y01709
X01017
X01018Y017
X01004
X01003Y01709
Y01723
X00989
Y01709
X0099Y017
X00976
X00978Y01718
X01064Y01682
Y01653
Y01618
X01045Y01612
Y01598
X01062Y01583436
X01132Y015915
X01146
X0116
X01174
X01188
X01202
Y016055
Y016195
Y016335
Y016475
Y016615
Y016755
Y016895
X01206Y017005
Y017145
X0122
X01234
X01248
X012745Y017095
X01313Y01689
X01327
Y01675
X01313Y01647
X0131Y01584
X01272Y015915
X01258
X01244
X0123
X01216
X01223Y015825
X01209
X01195
X01181
X01167
X01153
X01237
X01251
X01265
X01192Y017005
Y017145
X01178
X01164
X0115
X01136
X01122
Y017005
X01136
X0115
X01164
X01178
X01123Y016865
Y016725
Y016585
X01109
X0111Y016895
X01108Y017005
X0101Y0153
X00996
X00946Y01408
Y01384
X00961Y01337
X01068Y01389
X01061Y0141
X01335Y0143
X01374Y01429
Y01443
Y01457
X01388
Y01443
Y01429
Y01415
X01374
Y01401
X01388
Y01387
Y01373
X01405
Y01387
Y01401
Y01415
Y01429
Y01443
Y01457
X01419
Y01443
Y01429
Y01415
Y01401
X01438
X01452
Y01415
Y01429
Y01443
Y01457
X01438
Y01443
Y01429
Y01415
X01443201Y01387811
X01443201Y01354811
X01396271Y01357891
X01377Y01358
Y01344
X01363
X01349
X01335
X01346Y01478
X0136
X01374
Y01492
Y01506
Y0152
Y01534
X01388
Y01548
Y01562
Y01576
X01374
Y0159
X01388
X01406Y0159
X0142
Y01576
X01406
Y01562
X0142
Y01548
X01406
Y01534
Y0152
Y01506
X01397239Y01497817
X01388Y01492
Y01506
Y0152
X0136
X01346
X01388Y01478
X0144341Y0149397
Y0152697
X0145Y01548
Y01562
Y01576
X01436
Y01562
Y01548
X0142Y01534
X01436Y0159
X0145
X01445Y01632
Y01665
X01444Y01688
X0143Y01674
X01416
X01402
X01388
X01374
Y01688
Y01702
X01371Y01716
X0136Y01695
Y01653
X01374
X01388
Y01639
X01398Y01636
X01388Y01625
X01374
Y01639
X01346Y01653
X00833Y01743
X00819
X00805
X00791
X00777
X0076Y01759
X00746
X00732
X00718
X00704
X0069
X00676
X00672Y01743
T02
X01396858Y01205858
X01411Y012
X01425142Y01205858
X01431Y0122
X01425142Y01234142
X01411Y0124
X01396858Y01234142
X01391Y0122
X00731
X00725142Y01234142
X00711Y0124
X00696858Y01234142
X00691Y0122
X00696858Y01205858
X00711Y012
X00725142Y01205858
Y01705858
X00731Y0172
X00711Y017
X00696858Y01705858
X00691Y0172
X01391
X01396858Y01705858
X01411Y017
X01425142Y01705858
X01431Y0172
X01425142Y01734142
X01411Y0174
X01396858Y01734142
X00725142
X00711Y0174
X00696858Y01734142
T03
X01411Y0122
X00711
Y0172
X01411
M30
