G04*
G04 #@! TF.GenerationSoftware,Altium Limited,Altium Designer,23.3.1 (30)*
G04*
G04 Layer_Color=128*
%FSLAX44Y44*%
%MOMM*%
G71*
G04*
G04 #@! TF.SameCoordinates,D690764C-15D9-45C2-B971-25477444B052*
G04*
G04*
G04 #@! TF.FilePolarity,Positive*
G04*
G01*
G75*
%ADD14R,1.2000X1.4000*%
%ADD19R,1.0000X0.7000*%
%ADD21R,0.7000X1.0000*%
%ADD25R,1.4000X1.3000*%
%ADD26R,0.6000X1.1000*%
%ADD28R,1.4000X1.2000*%
%ADD30R,2.0000X1.7000*%
%ADD32R,1.4500X3.8000*%
%ADD33R,1.0000X2.7000*%
%ADD68R,1.0000X1.0000*%
%ADD79R,1.1000X0.6000*%
%ADD80R,1.1000X2.0000*%
%ADD81R,1.7500X0.6500*%
%ADD82R,1.2000X0.3000*%
%ADD83R,0.3000X1.2000*%
%ADD84R,0.7000X0.6000*%
%ADD85R,6.0000X2.0000*%
D14*
X962000Y1526000D02*
D03*
X981000D02*
D03*
X907500Y1603000D02*
D03*
X926500D02*
D03*
X906500Y1623000D02*
D03*
X925500D02*
D03*
X910500Y1446000D02*
D03*
X929500D02*
D03*
X910500Y1426000D02*
D03*
X929500D02*
D03*
X961500Y1350000D02*
D03*
X980500D02*
D03*
X1053500Y1186000D02*
D03*
X1072500D02*
D03*
D19*
X674000Y1631000D02*
D03*
Y1647000D02*
D03*
X690000Y1631000D02*
D03*
Y1647000D02*
D03*
X706000Y1631000D02*
D03*
Y1647000D02*
D03*
X929000Y1641000D02*
D03*
Y1657000D02*
D03*
X810000Y1568000D02*
D03*
Y1584000D02*
D03*
X695000Y1522000D02*
D03*
Y1538000D02*
D03*
X713000Y1538000D02*
D03*
Y1522000D02*
D03*
X722000Y1391000D02*
D03*
Y1375000D02*
D03*
X706000D02*
D03*
Y1391000D02*
D03*
X840000Y1279000D02*
D03*
Y1295000D02*
D03*
X768000Y1375000D02*
D03*
Y1391000D02*
D03*
X690000Y1375000D02*
D03*
Y1391000D02*
D03*
X877000Y1663000D02*
D03*
Y1679000D02*
D03*
D21*
X1429000Y1623000D02*
D03*
X1445000D02*
D03*
X1427410Y1484970D02*
D03*
X1443410D02*
D03*
X1427201Y1345811D02*
D03*
X1443201D02*
D03*
X1287249Y1217030D02*
D03*
X1271249D02*
D03*
X821000Y1365000D02*
D03*
X837000D02*
D03*
X737000Y1375000D02*
D03*
X753000D02*
D03*
X864000Y1544000D02*
D03*
X848000D02*
D03*
X864000Y1560000D02*
D03*
X848000D02*
D03*
X864000Y1576000D02*
D03*
X848000D02*
D03*
X855000Y1611000D02*
D03*
X839000D02*
D03*
X872000Y1458000D02*
D03*
X888000D02*
D03*
X805000Y1365000D02*
D03*
X789000D02*
D03*
X737000Y1391000D02*
D03*
X753000D02*
D03*
X670000Y1429000D02*
D03*
X686000D02*
D03*
X670000Y1413000D02*
D03*
X686000D02*
D03*
X670000Y1445000D02*
D03*
X686000D02*
D03*
X765000Y1698000D02*
D03*
X749000D02*
D03*
X784000Y1624000D02*
D03*
X800000D02*
D03*
X770000D02*
D03*
X754000D02*
D03*
X1396271Y1344891D02*
D03*
X1412271D02*
D03*
X1397239Y1484817D02*
D03*
X1413239D02*
D03*
X1398000Y1623000D02*
D03*
X1414000D02*
D03*
X1426290Y1329026D02*
D03*
X1442290D02*
D03*
X1427530Y1468690D02*
D03*
X1443530D02*
D03*
X1428366Y1607091D02*
D03*
X1444366D02*
D03*
X1412500Y1329000D02*
D03*
X1396500D02*
D03*
X1413500Y1468690D02*
D03*
X1397500D02*
D03*
X1414000Y1607000D02*
D03*
X1398000D02*
D03*
X931000Y1256000D02*
D03*
X947000D02*
D03*
X897000Y1697000D02*
D03*
X913000D02*
D03*
D25*
X931000Y1692500D02*
D03*
Y1673500D02*
D03*
D26*
X912500Y1653000D02*
D03*
X903000D02*
D03*
X893500D02*
D03*
X912500Y1679000D02*
D03*
X893500D02*
D03*
X861500Y1653000D02*
D03*
X852000D02*
D03*
X842500D02*
D03*
X861500Y1679000D02*
D03*
X842500D02*
D03*
D28*
X992000Y1231000D02*
D03*
Y1250000D02*
D03*
X972000Y1231500D02*
D03*
Y1250500D02*
D03*
D30*
X673000Y1461900D02*
D03*
Y1487300D02*
D03*
Y1512700D02*
D03*
Y1538100D02*
D03*
D32*
X933000Y1192000D02*
D03*
X829000D02*
D03*
D33*
X911000Y1252000D02*
D03*
X891000D02*
D03*
X871000D02*
D03*
X851000D02*
D03*
D68*
X752300Y1406000D02*
D03*
X777700D02*
D03*
X864700Y1596000D02*
D03*
X839300D02*
D03*
D79*
X1418963Y1638530D02*
D03*
Y1648030D02*
D03*
Y1657530D02*
D03*
X1444963Y1638530D02*
D03*
Y1657530D02*
D03*
X1417373Y1500500D02*
D03*
Y1510000D02*
D03*
Y1519500D02*
D03*
X1443373Y1500500D02*
D03*
Y1519500D02*
D03*
X1417165Y1361341D02*
D03*
Y1370841D02*
D03*
Y1380341D02*
D03*
X1443165Y1361341D02*
D03*
Y1380341D02*
D03*
X1297285Y1201500D02*
D03*
Y1192000D02*
D03*
Y1182500D02*
D03*
X1271285Y1201500D02*
D03*
Y1182500D02*
D03*
D80*
X707000Y1571000D02*
D03*
X690000D02*
D03*
X673000D02*
D03*
X707000Y1609000D02*
D03*
X690000D02*
D03*
X673000D02*
D03*
D81*
X748710Y1667265D02*
D03*
Y1654565D02*
D03*
Y1641865D02*
D03*
Y1679965D02*
D03*
X804710Y1641865D02*
D03*
Y1654565D02*
D03*
Y1667265D02*
D03*
Y1679965D02*
D03*
X981000Y1558600D02*
D03*
Y1571300D02*
D03*
Y1584000D02*
D03*
Y1545900D02*
D03*
X925000Y1584000D02*
D03*
Y1571300D02*
D03*
Y1558600D02*
D03*
Y1545900D02*
D03*
X981000Y1381000D02*
D03*
Y1393700D02*
D03*
Y1406400D02*
D03*
Y1368300D02*
D03*
X925000Y1406400D02*
D03*
Y1393700D02*
D03*
Y1381000D02*
D03*
Y1368300D02*
D03*
X1073000Y1216650D02*
D03*
Y1229350D02*
D03*
Y1242050D02*
D03*
Y1203950D02*
D03*
X1017000Y1242050D02*
D03*
Y1229350D02*
D03*
Y1216650D02*
D03*
Y1203950D02*
D03*
D82*
X824500Y1457500D02*
D03*
Y1462500D02*
D03*
Y1467500D02*
D03*
Y1472500D02*
D03*
Y1477500D02*
D03*
Y1482500D02*
D03*
Y1487500D02*
D03*
Y1492500D02*
D03*
Y1497500D02*
D03*
Y1502500D02*
D03*
Y1507500D02*
D03*
X739500Y1457500D02*
D03*
Y1512500D02*
D03*
Y1507500D02*
D03*
Y1502500D02*
D03*
Y1497500D02*
D03*
Y1492500D02*
D03*
Y1487500D02*
D03*
Y1482500D02*
D03*
Y1477500D02*
D03*
Y1472500D02*
D03*
Y1467500D02*
D03*
Y1462500D02*
D03*
X824500Y1512500D02*
D03*
D83*
X754500Y1527500D02*
D03*
X809500D02*
D03*
X804500D02*
D03*
X799500D02*
D03*
X794500D02*
D03*
X789500D02*
D03*
X784500D02*
D03*
X779500D02*
D03*
X774500D02*
D03*
X769500D02*
D03*
X764500D02*
D03*
X759500D02*
D03*
X804500Y1442500D02*
D03*
X799500D02*
D03*
X794500D02*
D03*
X789500D02*
D03*
X784500D02*
D03*
X779500D02*
D03*
X774500D02*
D03*
X769500D02*
D03*
X764500D02*
D03*
X759500D02*
D03*
X754500D02*
D03*
X809500D02*
D03*
D84*
X805000Y1287000D02*
D03*
X825000Y1277500D02*
D03*
Y1296500D02*
D03*
D85*
X858000Y1330000D02*
D03*
X768000D02*
D03*
M02*
