G04*
G04 #@! TF.GenerationSoftware,Altium Limited,Altium Designer,23.3.1 (30)*
G04*
G04 Layer_Color=32896*
%FSLAX44Y44*%
%MOMM*%
G71*
G04*
G04 #@! TF.SameCoordinates,D690764C-15D9-45C2-B971-25477444B052*
G04*
G04*
G04 #@! TF.FilePolarity,Positive*
G04*
G01*
G75*
%ADD10C,0.2540*%
%ADD11C,0.1270*%
%ADD12C,0.1524*%
D10*
X720971Y1563369D02*
G03*
X720971Y1563369I-2236J0D01*
G01*
X830606Y1440000D02*
G03*
X830606Y1440000I-3606J0D01*
G01*
X926236Y1252000D02*
G03*
X926236Y1252000I-2236J0D01*
G01*
D11*
X760000Y1354000D02*
G03*
X755000Y1349000I0J-5000D01*
G01*
X871000D02*
G03*
X866000Y1354000I-5000J0D01*
G01*
Y1306000D02*
G03*
X871000Y1311000I0J5000D01*
G01*
X755000D02*
G03*
X760000Y1306000I5000J0D01*
G01*
X971500Y1536000D02*
X990500D01*
X952500D02*
X971500D01*
X952500Y1516000D02*
X971500D01*
X990500D01*
X1417963Y1663030D02*
X1427963D01*
X1429963D01*
X1435963D02*
X1445963D01*
X1429963D02*
X1435963D01*
Y1633030D02*
X1445963D01*
X1433963Y1635030D02*
X1435963Y1633030D01*
X1431963Y1635030D02*
X1433963D01*
X1417963Y1633030D02*
X1427963D01*
X1429963Y1635030D01*
X1431963D01*
X1422000Y1631000D02*
X1452000D01*
X1422000Y1615000D02*
X1452000D01*
X1420410Y1492970D02*
X1450410D01*
X1420410Y1476970D02*
X1450410D01*
X1416373Y1525000D02*
X1426373D01*
X1428373D01*
X1434373D02*
X1444373D01*
X1428373D02*
X1434373D01*
Y1495000D02*
X1444373D01*
X1432373Y1497000D02*
X1434373Y1495000D01*
X1430373Y1497000D02*
X1432373D01*
X1416373Y1495000D02*
X1426373D01*
X1428373Y1497000D01*
X1430373D01*
X1416165Y1385841D02*
X1426165D01*
X1428165D01*
X1434165D02*
X1444165D01*
X1428165D02*
X1434165D01*
Y1355841D02*
X1444165D01*
X1432165Y1357841D02*
X1434165Y1355841D01*
X1430165Y1357841D02*
X1432165D01*
X1416165Y1355841D02*
X1426165D01*
X1428165Y1357841D01*
X1430165D01*
X1420201Y1353811D02*
X1450201D01*
X1420201Y1337811D02*
X1450201D01*
X1264249Y1209030D02*
X1294249D01*
X1264249Y1225030D02*
X1294249D01*
X1288286Y1177000D02*
X1298286D01*
X1286286D02*
X1288286D01*
X1270285D02*
X1280285D01*
X1286286D01*
X1270285Y1207000D02*
X1280285D01*
X1282285Y1205000D01*
X1284285D01*
X1288286Y1207000D02*
X1298286D01*
X1286286Y1205000D02*
X1288286Y1207000D01*
X1284285Y1205000D02*
X1286286D01*
X814000Y1373000D02*
X844000D01*
X814000Y1357000D02*
X844000D01*
X730000Y1383000D02*
X760000D01*
X730000Y1367000D02*
X760000D01*
X684000Y1589000D02*
X688000D01*
X716000Y1612000D02*
X719000D01*
Y1590000D02*
Y1612000D01*
Y1574000D02*
Y1590000D01*
X716000Y1571000D02*
X719000Y1574000D01*
X716000Y1568000D02*
Y1571000D01*
X661000Y1568000D02*
X664000D01*
X661000D02*
Y1590000D01*
Y1612000D02*
X664000D01*
X661000Y1590000D02*
Y1612000D01*
X694000Y1584000D02*
Y1586000D01*
X690000D02*
X694000D01*
X686000Y1584000D02*
Y1586000D01*
X690000D01*
X692000D02*
Y1592000D01*
X694032D01*
Y1596000D01*
X688000Y1586000D02*
Y1592000D01*
X685963D02*
X688000D01*
X685963D02*
Y1596000D01*
X692000Y1589000D02*
X696000D01*
X666000Y1654000D02*
X674000D01*
X666000Y1639000D02*
Y1654000D01*
Y1624000D02*
X674000D01*
X666000D02*
Y1639000D01*
X674000Y1624000D02*
X682000D01*
Y1639000D01*
X674000Y1654000D02*
X682000D01*
Y1639000D02*
Y1654000D01*
X682000D02*
X690000D01*
X682000Y1639000D02*
Y1654000D01*
Y1624000D02*
X690000D01*
X682000D02*
Y1639000D01*
X690000Y1624000D02*
X698000D01*
Y1639000D01*
X690000Y1654000D02*
X698000D01*
Y1639000D02*
Y1654000D01*
X698000D02*
X706000D01*
X698000Y1639000D02*
Y1654000D01*
Y1624000D02*
X706000D01*
X698000D02*
Y1639000D01*
X706000Y1624000D02*
X714000D01*
Y1639000D01*
X706000Y1654000D02*
X714000D01*
Y1639000D02*
Y1654000D01*
X746710Y1685915D02*
Y1687915D01*
X768710Y1680915D02*
X784710D01*
X746710Y1633915D02*
Y1635915D01*
Y1633915D02*
X776710D01*
X806710D02*
Y1635915D01*
X776710Y1633915D02*
X806710D01*
X784710Y1680915D02*
X791710Y1687915D01*
X801710D01*
X761710D02*
X768710Y1680915D01*
X746710Y1687915D02*
X761710D01*
X921000Y1664000D02*
X929000D01*
X921000Y1649000D02*
Y1664000D01*
Y1634000D02*
X929000D01*
X921000D02*
Y1649000D01*
X929000Y1634000D02*
X937000D01*
Y1649000D01*
X929000Y1664000D02*
X937000D01*
Y1649000D02*
Y1664000D01*
X931000Y1702000D02*
X941000D01*
Y1683000D02*
Y1702000D01*
X931000Y1664000D02*
X941000D01*
Y1683000D01*
X921000Y1664000D02*
X931000D01*
X921000D02*
Y1683000D01*
Y1702000D02*
X931000D01*
X921000Y1683000D02*
Y1702000D01*
X917000Y1613000D02*
X936000D01*
X898000D02*
X917000D01*
X898000Y1593000D02*
X917000D01*
X936000D01*
X983000Y1537950D02*
Y1539950D01*
X945000Y1544950D02*
X961000D01*
X983000Y1589950D02*
Y1591950D01*
X953000D02*
X983000D01*
X923000Y1589950D02*
Y1591950D01*
X953000D01*
X938000Y1537950D02*
X945000Y1544950D01*
X928000Y1537950D02*
X938000D01*
X961000Y1544950D02*
X968000Y1537950D01*
X983000D01*
X916000Y1633000D02*
X935000D01*
X897000D02*
X916000D01*
X897000Y1613000D02*
X916000D01*
X935000D01*
X888000Y1652000D02*
Y1662000D01*
Y1664000D01*
Y1670000D02*
Y1680000D01*
Y1664000D02*
Y1670000D01*
X918000D02*
Y1680000D01*
X916000Y1668000D02*
X918000Y1670000D01*
X916000Y1666000D02*
Y1668000D01*
X918000Y1652000D02*
Y1662000D01*
X916000Y1664000D02*
X918000Y1662000D01*
X916000Y1664000D02*
Y1666000D01*
X841000Y1536000D02*
X871000D01*
X841000Y1552000D02*
X871000D01*
X841000D02*
X871000D01*
X841000Y1568000D02*
X871000D01*
X841000Y1568000D02*
X871000D01*
X841000Y1584000D02*
X871000D01*
X832000Y1603000D02*
Y1611000D01*
Y1603000D02*
X847000D01*
X862000D02*
Y1611000D01*
X847000Y1603000D02*
X862000D01*
Y1611000D02*
Y1619000D01*
X847000D02*
X862000D01*
X832000Y1611000D02*
Y1619000D01*
X847000D01*
X802000Y1561000D02*
Y1591000D01*
X818000Y1561000D02*
Y1591000D01*
X687000Y1515000D02*
Y1545000D01*
X703000Y1515000D02*
Y1545000D01*
X721000Y1515000D02*
Y1545000D01*
X705000Y1515000D02*
Y1545000D01*
X813000Y1440000D02*
X827000Y1454000D01*
Y1516000D02*
Y1530000D01*
X813000D02*
X827000D01*
X737000Y1516000D02*
Y1530000D01*
X751000D01*
X737000Y1440000D02*
X751000D01*
X737000D02*
Y1454000D01*
X865000Y1466000D02*
X895000D01*
X865000Y1450000D02*
X895000D01*
X920000Y1456000D02*
X939000D01*
X901000D02*
X920000D01*
X901000Y1436000D02*
X920000D01*
X939000D01*
X920000D02*
X939000D01*
X901000D02*
X920000D01*
X901000Y1416000D02*
X920000D01*
X939000D01*
X983000Y1360350D02*
Y1362350D01*
X945000Y1367350D02*
X961000D01*
X983000Y1412350D02*
Y1414350D01*
X953000D02*
X983000D01*
X923000Y1412350D02*
Y1414350D01*
X953000D01*
X938000Y1360350D02*
X945000Y1367350D01*
X928000Y1360350D02*
X938000D01*
X961000Y1367350D02*
X968000Y1360350D01*
X983000D01*
X971000Y1360000D02*
X990000D01*
X952000D02*
X971000D01*
X952000Y1340000D02*
X971000D01*
X990000D01*
X1063000Y1196000D02*
X1082000D01*
X1044000D02*
X1063000D01*
X1044000Y1176000D02*
X1063000D01*
X1082000D01*
X1075000Y1196000D02*
Y1198000D01*
X1037000Y1203000D02*
X1053000D01*
X1075000Y1248000D02*
Y1250000D01*
X1045000D02*
X1075000D01*
X1015000Y1248000D02*
Y1250000D01*
X1045000D01*
X1030000Y1196000D02*
X1037000Y1203000D01*
X1020000Y1196000D02*
X1030000D01*
X1053000Y1203000D02*
X1060000Y1196000D01*
X1075000D01*
X982000Y1240500D02*
Y1259500D01*
Y1221500D02*
Y1240500D01*
X1002000Y1221500D02*
Y1240500D01*
Y1259500D01*
X962000Y1241000D02*
Y1260000D01*
Y1222000D02*
Y1241000D01*
X982000Y1222000D02*
Y1241000D01*
Y1260000D01*
X869000Y1180000D02*
X881500D01*
X821000Y1170000D02*
X859000D01*
X869000Y1180000D01*
X880500D02*
X893000D01*
X903000Y1170000D02*
X941000D01*
X893000Y1180000D02*
X903000Y1170000D01*
X919000Y1246000D02*
X932000D01*
X941000D01*
Y1242000D02*
Y1246000D01*
Y1214000D02*
Y1242000D01*
X830000Y1246000D02*
X843000D01*
X821000D02*
X830000D01*
X821000Y1242000D02*
Y1246000D01*
Y1214000D02*
Y1242000D01*
X821000Y1283000D02*
Y1287000D01*
Y1291000D01*
X808000Y1272000D02*
X821000D01*
X808000D02*
Y1281000D01*
Y1302000D02*
X821000D01*
X808000Y1293000D02*
Y1302000D01*
X810000Y1323000D02*
Y1337000D01*
X816000Y1323000D02*
Y1337000D01*
X813000D02*
X816000D01*
X810000D02*
X813000D01*
X810000Y1323000D02*
X813000D01*
X816000D01*
X760000Y1354000D02*
X798000D01*
X755000Y1343000D02*
Y1349000D01*
X798000Y1354000D02*
X813000D01*
X828000D02*
X866000D01*
X871000Y1343000D02*
Y1349000D01*
X813000Y1354000D02*
X828000D01*
Y1306000D02*
X866000D01*
X871000Y1311000D02*
Y1317000D01*
X813000Y1306000D02*
X828000D01*
X760000D02*
X798000D01*
X755000Y1311000D02*
Y1317000D01*
X798000Y1306000D02*
X813000D01*
X801000Y1330000D02*
X807000D01*
Y1323000D02*
Y1330000D01*
Y1337000D01*
X819000Y1330000D02*
X825000D01*
X819000Y1323000D02*
Y1330000D01*
Y1337000D01*
X730000Y1368000D02*
Y1398000D01*
X714000Y1368000D02*
Y1398000D01*
X698000D02*
X706000D01*
X698000Y1383000D02*
Y1398000D01*
Y1368000D02*
X706000D01*
X698000D02*
Y1383000D01*
X706000Y1368000D02*
X714000D01*
Y1383000D01*
X706000Y1398000D02*
X714000D01*
Y1383000D02*
Y1398000D01*
X832000Y1302000D02*
X840000D01*
X832000Y1287000D02*
Y1302000D01*
Y1272000D02*
X840000D01*
X832000D02*
Y1287000D01*
X840000Y1272000D02*
X848000D01*
Y1287000D01*
X840000Y1302000D02*
X848000D01*
Y1287000D02*
Y1302000D01*
X782000Y1357000D02*
X812000D01*
X782000Y1373000D02*
X812000D01*
X730000Y1399000D02*
X760000D01*
X730000Y1383000D02*
X760000D01*
Y1398000D02*
X768000D01*
X760000Y1383000D02*
Y1398000D01*
Y1368000D02*
X768000D01*
X760000D02*
Y1383000D01*
X768000Y1368000D02*
X776000D01*
Y1383000D01*
X768000Y1398000D02*
X776000D01*
Y1383000D02*
Y1398000D01*
X682000Y1368000D02*
Y1398000D01*
X698000Y1368000D02*
Y1398000D01*
X663000Y1437000D02*
X693000D01*
X663000Y1421000D02*
X693000D01*
X663000Y1421000D02*
X693000D01*
X663000Y1405000D02*
X693000D01*
X663000Y1453000D02*
X693000D01*
X663000Y1437000D02*
X693000D01*
X673000Y1549650D02*
X686000D01*
Y1526650D02*
Y1549650D01*
X673000Y1526650D02*
X686000D01*
X660000Y1549650D02*
X673000D01*
X660000Y1526650D02*
Y1549650D01*
Y1526650D02*
X673000D01*
X742000Y1690000D02*
X772000D01*
X742000Y1706000D02*
X772000D01*
X807000Y1624000D02*
Y1632000D01*
X792000D02*
X807000D01*
X777000Y1624000D02*
Y1632000D01*
X792000D01*
X777000Y1616000D02*
Y1624000D01*
Y1616000D02*
X792000D01*
X807000D02*
Y1624000D01*
X792000Y1616000D02*
X807000D01*
X747000D02*
Y1624000D01*
Y1616000D02*
X762000D01*
X777000D02*
Y1624000D01*
X762000Y1616000D02*
X777000D01*
Y1624000D02*
Y1632000D01*
X762000D02*
X777000D01*
X747000Y1624000D02*
Y1632000D01*
X762000D01*
X837000Y1652000D02*
Y1662000D01*
Y1664000D01*
Y1670000D02*
Y1680000D01*
Y1664000D02*
Y1670000D01*
X867000D02*
Y1680000D01*
X865000Y1668000D02*
X867000Y1670000D01*
X865000Y1666000D02*
Y1668000D01*
X867000Y1652000D02*
Y1662000D01*
X865000Y1664000D02*
X867000Y1662000D01*
X865000Y1664000D02*
Y1666000D01*
X1419271Y1344891D02*
Y1352891D01*
X1404271D02*
X1419271D01*
X1389271Y1344891D02*
Y1352891D01*
X1404271D01*
X1389271Y1336891D02*
Y1344891D01*
Y1336891D02*
X1404271D01*
X1419271D02*
Y1344891D01*
X1404271Y1336891D02*
X1419271D01*
X1420239Y1484817D02*
Y1492817D01*
X1405239D02*
X1420239D01*
X1390239Y1484817D02*
Y1492817D01*
X1405239D01*
X1390239Y1476817D02*
Y1484817D01*
Y1476817D02*
X1405239D01*
X1420239D02*
Y1484817D01*
X1405239Y1476817D02*
X1420239D01*
X1421000Y1623000D02*
Y1631000D01*
X1406000D02*
X1421000D01*
X1391000Y1623000D02*
Y1631000D01*
X1406000D01*
X1391000Y1615000D02*
Y1623000D01*
Y1615000D02*
X1406000D01*
X1421000D02*
Y1623000D01*
X1406000Y1615000D02*
X1421000D01*
X1449290Y1329026D02*
Y1337026D01*
X1434290D02*
X1449290D01*
X1419290Y1329026D02*
Y1337026D01*
X1434290D01*
X1419290Y1321026D02*
Y1329026D01*
Y1321026D02*
X1434290D01*
X1449290D02*
Y1329026D01*
X1434290Y1321026D02*
X1449290D01*
X1450530Y1468690D02*
Y1476690D01*
X1435530D02*
X1450530D01*
X1420530Y1468690D02*
Y1476690D01*
X1435530D01*
X1420530Y1460690D02*
Y1468690D01*
Y1460690D02*
X1435530D01*
X1450530D02*
Y1468690D01*
X1435530Y1460690D02*
X1450530D01*
X1451366Y1607091D02*
Y1615091D01*
X1436366D02*
X1451366D01*
X1421366Y1607091D02*
Y1615091D01*
X1436366D01*
X1421366Y1599091D02*
Y1607091D01*
Y1599091D02*
X1436366D01*
X1451366D02*
Y1607091D01*
X1436366Y1599091D02*
X1451366D01*
X1389500Y1321000D02*
Y1329000D01*
Y1321000D02*
X1404500D01*
X1419500D02*
Y1329000D01*
X1404500Y1321000D02*
X1419500D01*
Y1329000D02*
Y1337000D01*
X1404500D02*
X1419500D01*
X1389500Y1329000D02*
Y1337000D01*
X1404500D01*
X1390500Y1460690D02*
Y1468690D01*
Y1460690D02*
X1405500D01*
X1420500D02*
Y1468690D01*
X1405500Y1460690D02*
X1420500D01*
Y1468690D02*
Y1476690D01*
X1405500D02*
X1420500D01*
X1390500Y1468690D02*
Y1476690D01*
X1405500D01*
X1391000Y1599000D02*
Y1607000D01*
Y1599000D02*
X1406000D01*
X1421000D02*
Y1607000D01*
X1406000Y1599000D02*
X1421000D01*
Y1607000D02*
Y1615000D01*
X1406000D02*
X1421000D01*
X1391000Y1607000D02*
Y1615000D01*
X1406000D01*
X924000Y1264000D02*
X954000D01*
X924000Y1248000D02*
X954000D01*
X890000Y1705000D02*
X920000D01*
X890000Y1689000D02*
X920000D01*
X869000Y1656000D02*
Y1686000D01*
X885000Y1656000D02*
Y1686000D01*
X983078Y1508539D02*
X984348Y1509809D01*
X986887D01*
X988157Y1508539D01*
Y1503461D01*
X986887Y1502191D01*
X984348D01*
X983078Y1503461D01*
X980539Y1508539D02*
X979270Y1509809D01*
X976730D01*
X975461Y1508539D01*
Y1507270D01*
X976730Y1506000D01*
X978000D01*
X976730D01*
X975461Y1504730D01*
Y1503461D01*
X976730Y1502191D01*
X979270D01*
X980539Y1503461D01*
X972922Y1508539D02*
X971652Y1509809D01*
X969113D01*
X967843Y1508539D01*
Y1507270D01*
X969113Y1506000D01*
X967843Y1504730D01*
Y1503461D01*
X969113Y1502191D01*
X971652D01*
X972922Y1503461D01*
Y1504730D01*
X971652Y1506000D01*
X972922Y1507270D01*
Y1508539D01*
X971652Y1506000D02*
X969113D01*
X802078Y1221809D02*
X807157D01*
Y1218000D01*
X804617D01*
X807157D01*
Y1214191D01*
X799539Y1221809D02*
Y1214191D01*
X795730D01*
X794461Y1215461D01*
Y1220539D01*
X795730Y1221809D01*
X799539D01*
X786843D02*
X789382Y1220539D01*
X791922Y1218000D01*
Y1215461D01*
X790652Y1214191D01*
X788113D01*
X786843Y1215461D01*
Y1216730D01*
X788113Y1218000D01*
X791922D01*
X766078Y1221809D02*
X771157D01*
Y1218000D01*
X768617D01*
X771157D01*
Y1214191D01*
X763539Y1221809D02*
Y1214191D01*
X759730D01*
X758461Y1215461D01*
Y1220539D01*
X759730Y1221809D01*
X763539D01*
X750843D02*
X755922D01*
Y1218000D01*
X753382Y1219270D01*
X752113D01*
X750843Y1218000D01*
Y1215461D01*
X752113Y1214191D01*
X754652D01*
X755922Y1215461D01*
X1363078Y1723809D02*
X1368157D01*
Y1720000D01*
X1365618D01*
X1368157D01*
Y1716191D01*
X1360539Y1723809D02*
Y1716191D01*
X1356730D01*
X1355461Y1717461D01*
Y1722539D01*
X1356730Y1723809D01*
X1360539D01*
X1352922Y1722539D02*
X1351652Y1723809D01*
X1349113D01*
X1347843Y1722539D01*
Y1721270D01*
X1349113Y1720000D01*
X1347843Y1718730D01*
Y1717461D01*
X1349113Y1716191D01*
X1351652D01*
X1352922Y1717461D01*
Y1718730D01*
X1351652Y1720000D01*
X1352922Y1721270D01*
Y1722539D01*
X1351652Y1720000D02*
X1349113D01*
X1324078Y1722809D02*
X1329157D01*
Y1719000D01*
X1326617D01*
X1329157D01*
Y1715191D01*
X1321539Y1722809D02*
Y1715191D01*
X1317730D01*
X1316461Y1716461D01*
Y1721539D01*
X1317730Y1722809D01*
X1321539D01*
X1313922D02*
X1308843D01*
Y1721539D01*
X1313922Y1716461D01*
Y1715191D01*
X1454348Y1677809D02*
Y1671461D01*
X1453078Y1670191D01*
X1450539D01*
X1449270Y1671461D01*
Y1677809D01*
X1441652D02*
X1444191Y1676539D01*
X1446730Y1674000D01*
Y1671461D01*
X1445461Y1670191D01*
X1442922D01*
X1441652Y1671461D01*
Y1672730D01*
X1442922Y1674000D01*
X1446730D01*
X1450078Y1593539D02*
X1451348Y1594809D01*
X1453887D01*
X1455157Y1593539D01*
Y1588461D01*
X1453887Y1587191D01*
X1451348D01*
X1450078Y1588461D01*
X1447539Y1593539D02*
X1446270Y1594809D01*
X1443730D01*
X1442461Y1593539D01*
Y1592270D01*
X1443730Y1591000D01*
X1445000D01*
X1443730D01*
X1442461Y1589730D01*
Y1588461D01*
X1443730Y1587191D01*
X1446270D01*
X1447539Y1588461D01*
X1434843Y1594809D02*
X1437382Y1593539D01*
X1439922Y1591000D01*
Y1588461D01*
X1438652Y1587191D01*
X1436113D01*
X1434843Y1588461D01*
Y1589730D01*
X1436113Y1591000D01*
X1439922D01*
X1453078Y1452539D02*
X1454348Y1453809D01*
X1456887D01*
X1458157Y1452539D01*
Y1447461D01*
X1456887Y1446191D01*
X1454348D01*
X1453078Y1447461D01*
X1450539Y1452539D02*
X1449270Y1453809D01*
X1446730D01*
X1445461Y1452539D01*
Y1451270D01*
X1446730Y1450000D01*
X1448000D01*
X1446730D01*
X1445461Y1448730D01*
Y1447461D01*
X1446730Y1446191D01*
X1449270D01*
X1450539Y1447461D01*
X1442922Y1453809D02*
X1437843D01*
Y1452539D01*
X1442922Y1447461D01*
Y1446191D01*
X1439348Y1537809D02*
Y1531461D01*
X1438078Y1530191D01*
X1435539D01*
X1434270Y1531461D01*
Y1537809D01*
X1431730D02*
X1426652D01*
Y1536539D01*
X1431730Y1531461D01*
Y1530191D01*
X1434348Y1397809D02*
Y1391461D01*
X1433078Y1390191D01*
X1430539D01*
X1429270Y1391461D01*
Y1397809D01*
X1426730Y1396539D02*
X1425461Y1397809D01*
X1422922D01*
X1421652Y1396539D01*
Y1395270D01*
X1422922Y1394000D01*
X1421652Y1392730D01*
Y1391461D01*
X1422922Y1390191D01*
X1425461D01*
X1426730Y1391461D01*
Y1392730D01*
X1425461Y1394000D01*
X1426730Y1395270D01*
Y1396539D01*
X1425461Y1394000D02*
X1422922D01*
X1440922Y1308461D02*
X1439652Y1307191D01*
X1437113D01*
X1435843Y1308461D01*
Y1313539D01*
X1437113Y1314809D01*
X1439652D01*
X1440922Y1313539D01*
X1447270Y1314809D02*
Y1307191D01*
X1443461Y1311000D01*
X1448539D01*
X1451078Y1308461D02*
X1452348Y1307191D01*
X1454887D01*
X1456157Y1308461D01*
Y1309730D01*
X1454887Y1311000D01*
X1453618D01*
X1454887D01*
X1456157Y1312270D01*
Y1313539D01*
X1454887Y1314809D01*
X1452348D01*
X1451078Y1313539D01*
X1315078Y1220539D02*
X1316348Y1221809D01*
X1318887D01*
X1320157Y1220539D01*
Y1215461D01*
X1318887Y1214191D01*
X1316348D01*
X1315078Y1215461D01*
X1308730Y1214191D02*
Y1221809D01*
X1312539Y1218000D01*
X1307461D01*
X1301113Y1214191D02*
Y1221809D01*
X1304922Y1218000D01*
X1299843D01*
X1308191Y1189348D02*
X1314539D01*
X1315809Y1188078D01*
Y1185539D01*
X1314539Y1184270D01*
X1308191D01*
X1314539Y1181730D02*
X1315809Y1180461D01*
Y1177922D01*
X1314539Y1176652D01*
X1309461D01*
X1308191Y1177922D01*
Y1180461D01*
X1309461Y1181730D01*
X1310730D01*
X1312000Y1180461D01*
Y1176652D01*
X835809Y1384539D02*
X837078Y1385809D01*
X839617D01*
X840887Y1384539D01*
Y1379461D01*
X839617Y1378191D01*
X837078D01*
X835809Y1379461D01*
X833270Y1384539D02*
X832000Y1385809D01*
X829461D01*
X828191Y1384539D01*
Y1383270D01*
X829461Y1382000D01*
X830730D01*
X829461D01*
X828191Y1380730D01*
Y1379461D01*
X829461Y1378191D01*
X832000D01*
X833270Y1379461D01*
X825652Y1378191D02*
X823113D01*
X824382D01*
Y1385809D01*
X825652Y1384539D01*
X738461Y1357078D02*
X737191Y1358348D01*
Y1360887D01*
X738461Y1362157D01*
X743539D01*
X744809Y1360887D01*
Y1358348D01*
X743539Y1357078D01*
X744809Y1349461D02*
Y1354539D01*
X739730Y1349461D01*
X738461D01*
X737191Y1350730D01*
Y1353270D01*
X738461Y1354539D01*
Y1346922D02*
X737191Y1345652D01*
Y1343113D01*
X738461Y1341843D01*
X739730D01*
X741000Y1343113D01*
X742270Y1341843D01*
X743539D01*
X744809Y1343113D01*
Y1345652D01*
X743539Y1346922D01*
X742270D01*
X741000Y1345652D01*
X739730Y1346922D01*
X738461D01*
X741000Y1345652D02*
Y1343113D01*
X724191Y1612887D02*
X731809D01*
Y1607809D01*
X724191Y1605270D02*
X731809D01*
Y1601461D01*
X730539Y1600191D01*
X725461D01*
X724191Y1601461D01*
Y1605270D01*
X731809Y1597652D02*
Y1595113D01*
Y1596382D01*
X724191D01*
X725461Y1597652D01*
X677809Y1677522D02*
X670191D01*
Y1673713D01*
X671461Y1672444D01*
X674000D01*
X675270Y1673713D01*
Y1677522D01*
Y1674983D02*
X677809Y1672444D01*
Y1669904D02*
Y1667365D01*
Y1668635D01*
X670191D01*
X671461Y1669904D01*
X670191Y1663556D02*
Y1658478D01*
X671461D01*
X676539Y1663556D01*
X677809D01*
X694809Y1678522D02*
X687191D01*
Y1674713D01*
X688461Y1673443D01*
X691000D01*
X692270Y1674713D01*
Y1678522D01*
Y1675983D02*
X694809Y1673443D01*
Y1670904D02*
Y1668365D01*
Y1669635D01*
X687191D01*
X688461Y1670904D01*
X687191Y1659478D02*
X688461Y1662017D01*
X691000Y1664556D01*
X693539D01*
X694809Y1663287D01*
Y1660748D01*
X693539Y1659478D01*
X692270D01*
X691000Y1660748D01*
Y1664556D01*
X710809Y1678522D02*
X703191D01*
Y1674713D01*
X704461Y1673443D01*
X707000D01*
X708270Y1674713D01*
Y1678522D01*
Y1675983D02*
X710809Y1673443D01*
Y1670904D02*
Y1668365D01*
Y1669635D01*
X703191D01*
X704461Y1670904D01*
X703191Y1659478D02*
Y1664556D01*
X707000D01*
X705730Y1662017D01*
Y1660748D01*
X707000Y1659478D01*
X709539D01*
X710809Y1660748D01*
Y1663287D01*
X709539Y1664556D01*
X805522Y1699809D02*
X802983D01*
X804252D01*
Y1692191D01*
X805522D01*
X802983D01*
X794096Y1698539D02*
X795365Y1699809D01*
X797904D01*
X799174Y1698539D01*
Y1693461D01*
X797904Y1692191D01*
X795365D01*
X794096Y1693461D01*
X786478Y1692191D02*
X791556D01*
X786478Y1697270D01*
Y1698539D01*
X787748Y1699809D01*
X790287D01*
X791556Y1698539D01*
X949809Y1656522D02*
X942191D01*
Y1652713D01*
X943461Y1651444D01*
X946000D01*
X947270Y1652713D01*
Y1656522D01*
Y1653983D02*
X949809Y1651444D01*
Y1648904D02*
Y1646365D01*
Y1647635D01*
X942191D01*
X943461Y1648904D01*
Y1642556D02*
X942191Y1641287D01*
Y1638748D01*
X943461Y1637478D01*
X948539D01*
X949809Y1638748D01*
Y1641287D01*
X948539Y1642556D01*
X943461D01*
X953809Y1692348D02*
X946191D01*
Y1688539D01*
X947461Y1687270D01*
X950000D01*
X951270Y1688539D01*
Y1692348D01*
Y1689809D02*
X953809Y1687270D01*
X947461Y1684730D02*
X946191Y1683461D01*
Y1680922D01*
X947461Y1679652D01*
X948730D01*
X950000Y1680922D01*
X951270Y1679652D01*
X952539D01*
X953809Y1680922D01*
Y1683461D01*
X952539Y1684730D01*
X951270D01*
X950000Y1683461D01*
X948730Y1684730D01*
X947461D01*
X950000Y1683461D02*
Y1680922D01*
X955078Y1603539D02*
X956348Y1604809D01*
X958887D01*
X960157Y1603539D01*
Y1598461D01*
X958887Y1597191D01*
X956348D01*
X955078Y1598461D01*
X948730Y1597191D02*
Y1604809D01*
X952539Y1601000D01*
X947461D01*
X944922Y1603539D02*
X943652Y1604809D01*
X941113D01*
X939843Y1603539D01*
Y1598461D01*
X941113Y1597191D01*
X943652D01*
X944922Y1598461D01*
Y1603539D01*
X936522Y1531809D02*
X933983D01*
X935252D01*
Y1524191D01*
X936522D01*
X933983D01*
X925096Y1530539D02*
X926365Y1531809D01*
X928904D01*
X930174Y1530539D01*
Y1525461D01*
X928904Y1524191D01*
X926365D01*
X925096Y1525461D01*
X918748Y1524191D02*
Y1531809D01*
X922556Y1528000D01*
X917478D01*
X951809Y1623539D02*
X953078Y1624809D01*
X955618D01*
X956887Y1623539D01*
Y1618461D01*
X955618Y1617191D01*
X953078D01*
X951809Y1618461D01*
X945461Y1617191D02*
Y1624809D01*
X949270Y1621000D01*
X944191D01*
X941652Y1617191D02*
X939113D01*
X940383D01*
Y1624809D01*
X941652Y1623539D01*
X886348Y1703809D02*
Y1697461D01*
X885078Y1696191D01*
X882539D01*
X881270Y1697461D01*
Y1703809D01*
X873652D02*
X878730D01*
Y1700000D01*
X876191Y1701270D01*
X874922D01*
X873652Y1700000D01*
Y1697461D01*
X874922Y1696191D01*
X877461D01*
X878730Y1697461D01*
X889078Y1546539D02*
X890348Y1547809D01*
X892887D01*
X894157Y1546539D01*
Y1541461D01*
X892887Y1540191D01*
X890348D01*
X889078Y1541461D01*
X881461Y1540191D02*
X886539D01*
X881461Y1545270D01*
Y1546539D01*
X882730Y1547809D01*
X885270D01*
X886539Y1546539D01*
X875113Y1540191D02*
Y1547809D01*
X878922Y1544000D01*
X873843D01*
X888078Y1562539D02*
X889348Y1563809D01*
X891887D01*
X893157Y1562539D01*
Y1557461D01*
X891887Y1556191D01*
X889348D01*
X888078Y1557461D01*
X880461Y1556191D02*
X885539D01*
X880461Y1561270D01*
Y1562539D01*
X881730Y1563809D01*
X884270D01*
X885539Y1562539D01*
X877922D02*
X876652Y1563809D01*
X874113D01*
X872843Y1562539D01*
Y1561270D01*
X874113Y1560000D01*
X875383D01*
X874113D01*
X872843Y1558730D01*
Y1557461D01*
X874113Y1556191D01*
X876652D01*
X877922Y1557461D01*
X889078Y1580539D02*
X890348Y1581809D01*
X892887D01*
X894157Y1580539D01*
Y1575461D01*
X892887Y1574191D01*
X890348D01*
X889078Y1575461D01*
X881461Y1574191D02*
X886539D01*
X881461Y1579270D01*
Y1580539D01*
X882730Y1581809D01*
X885270D01*
X886539Y1580539D01*
X873843Y1574191D02*
X878922D01*
X873843Y1579270D01*
Y1580539D01*
X875113Y1581809D01*
X877652D01*
X878922Y1580539D01*
X856252Y1622191D02*
Y1629809D01*
X852444D01*
X851174Y1628539D01*
Y1626000D01*
X852444Y1624730D01*
X856252D01*
X853713D02*
X851174Y1622191D01*
X848635D02*
X846096D01*
X847365D01*
Y1629809D01*
X848635Y1628539D01*
X842287Y1622191D02*
X839748D01*
X841017D01*
Y1629809D01*
X842287Y1628539D01*
X790461Y1583078D02*
X789191Y1584348D01*
Y1586887D01*
X790461Y1588157D01*
X795539D01*
X796809Y1586887D01*
Y1584348D01*
X795539Y1583078D01*
X796809Y1575461D02*
Y1580539D01*
X791730Y1575461D01*
X790461D01*
X789191Y1576730D01*
Y1579270D01*
X790461Y1580539D01*
X789191Y1567843D02*
Y1572922D01*
X793000D01*
X791730Y1570382D01*
Y1569113D01*
X793000Y1567843D01*
X795539D01*
X796809Y1569113D01*
Y1571652D01*
X795539Y1572922D01*
X731539Y1555922D02*
X732809Y1554652D01*
Y1552113D01*
X731539Y1550843D01*
X726461D01*
X725191Y1552113D01*
Y1554652D01*
X726461Y1555922D01*
X731539Y1558461D02*
X732809Y1559730D01*
Y1562270D01*
X731539Y1563539D01*
X730270D01*
X729000Y1562270D01*
Y1561000D01*
Y1562270D01*
X727730Y1563539D01*
X726461D01*
X725191Y1562270D01*
Y1559730D01*
X726461Y1558461D01*
X732809Y1571157D02*
Y1566078D01*
X729000D01*
X730270Y1568618D01*
Y1569887D01*
X729000Y1571157D01*
X726461D01*
X725191Y1569887D01*
Y1567348D01*
X726461Y1566078D01*
X743539Y1556922D02*
X744809Y1555652D01*
Y1553113D01*
X743539Y1551843D01*
X738461D01*
X737191Y1553113D01*
Y1555652D01*
X738461Y1556922D01*
X737191Y1564539D02*
Y1559461D01*
X742270Y1564539D01*
X743539D01*
X744809Y1563270D01*
Y1560730D01*
X743539Y1559461D01*
X744809Y1572157D02*
X743539Y1569618D01*
X741000Y1567078D01*
X738461D01*
X737191Y1568348D01*
Y1570887D01*
X738461Y1572157D01*
X739730D01*
X741000Y1570887D01*
Y1567078D01*
X749252Y1543809D02*
X746713D01*
X747983D01*
Y1536191D01*
X749252D01*
X746713D01*
X737826Y1542539D02*
X739096Y1543809D01*
X741635D01*
X742904Y1542539D01*
Y1537461D01*
X741635Y1536191D01*
X739096D01*
X737826Y1537461D01*
X735287Y1536191D02*
X732748D01*
X734017D01*
Y1543809D01*
X735287Y1542539D01*
X883078Y1477539D02*
X884348Y1478809D01*
X886887D01*
X888157Y1477539D01*
Y1472461D01*
X886887Y1471191D01*
X884348D01*
X883078Y1472461D01*
X875461Y1471191D02*
X880539D01*
X875461Y1476270D01*
Y1477539D01*
X876730Y1478809D01*
X879270D01*
X880539Y1477539D01*
X872922Y1478809D02*
X867843D01*
Y1477539D01*
X872922Y1472461D01*
Y1471191D01*
X892078Y1443539D02*
X893348Y1444809D01*
X895887D01*
X897157Y1443539D01*
Y1438461D01*
X895887Y1437191D01*
X893348D01*
X892078Y1438461D01*
X885730Y1437191D02*
Y1444809D01*
X889539Y1441000D01*
X884461D01*
X881922Y1443539D02*
X880652Y1444809D01*
X878113D01*
X876843Y1443539D01*
Y1442270D01*
X878113Y1441000D01*
X876843Y1439730D01*
Y1438461D01*
X878113Y1437191D01*
X880652D01*
X881922Y1438461D01*
Y1439730D01*
X880652Y1441000D01*
X881922Y1442270D01*
Y1443539D01*
X880652Y1441000D02*
X878113D01*
X891078Y1426539D02*
X892348Y1427809D01*
X894887D01*
X896157Y1426539D01*
Y1421461D01*
X894887Y1420191D01*
X892348D01*
X891078Y1421461D01*
X884730Y1420191D02*
Y1427809D01*
X888539Y1424000D01*
X883461D01*
X880922Y1427809D02*
X875843D01*
Y1426539D01*
X880922Y1421461D01*
Y1420191D01*
X914478Y1347191D02*
X917017D01*
X915748D01*
Y1354809D01*
X914478D01*
X917017D01*
X925904Y1348461D02*
X924635Y1347191D01*
X922096D01*
X920826Y1348461D01*
Y1353539D01*
X922096Y1354809D01*
X924635D01*
X925904Y1353539D01*
X933522Y1347191D02*
X928444D01*
Y1351000D01*
X930983Y1349730D01*
X932252D01*
X933522Y1351000D01*
Y1353539D01*
X932252Y1354809D01*
X929713D01*
X928444Y1353539D01*
X984078Y1332539D02*
X985348Y1333809D01*
X987887D01*
X989157Y1332539D01*
Y1327461D01*
X987887Y1326191D01*
X985348D01*
X984078Y1327461D01*
X977730Y1326191D02*
Y1333809D01*
X981539Y1330000D01*
X976461D01*
X968843Y1333809D02*
X973922D01*
Y1330000D01*
X971382Y1331270D01*
X970113D01*
X968843Y1330000D01*
Y1327461D01*
X970113Y1326191D01*
X972652D01*
X973922Y1327461D01*
X1035078Y1188539D02*
X1036348Y1189809D01*
X1038887D01*
X1040157Y1188539D01*
Y1183461D01*
X1038887Y1182191D01*
X1036348D01*
X1035078Y1183461D01*
X1027461Y1189809D02*
X1032539D01*
Y1186000D01*
X1030000Y1187270D01*
X1028730D01*
X1027461Y1186000D01*
Y1183461D01*
X1028730Y1182191D01*
X1031270D01*
X1032539Y1183461D01*
X1024922Y1188539D02*
X1023652Y1189809D01*
X1021113D01*
X1019843Y1188539D01*
Y1183461D01*
X1021113Y1182191D01*
X1023652D01*
X1024922Y1183461D01*
Y1188539D01*
X1009478Y1257191D02*
X1012017D01*
X1010748D01*
Y1264809D01*
X1009478D01*
X1012017D01*
X1020904Y1258461D02*
X1019635Y1257191D01*
X1017096D01*
X1015826Y1258461D01*
Y1263539D01*
X1017096Y1264809D01*
X1019635D01*
X1020904Y1263539D01*
X1028522Y1257191D02*
X1025983Y1258461D01*
X1023444Y1261000D01*
Y1263539D01*
X1024713Y1264809D01*
X1027252D01*
X1028522Y1263539D01*
Y1262270D01*
X1027252Y1261000D01*
X1023444D01*
X989461Y1282078D02*
X988191Y1283348D01*
Y1285887D01*
X989461Y1287157D01*
X994539D01*
X995809Y1285887D01*
Y1283348D01*
X994539Y1282078D01*
X988191Y1274461D02*
Y1279539D01*
X992000D01*
X990730Y1277000D01*
Y1275730D01*
X992000Y1274461D01*
X994539D01*
X995809Y1275730D01*
Y1278270D01*
X994539Y1279539D01*
X995809Y1266843D02*
Y1271922D01*
X990730Y1266843D01*
X989461D01*
X988191Y1268113D01*
Y1270652D01*
X989461Y1271922D01*
X969461Y1282078D02*
X968191Y1283348D01*
Y1285887D01*
X969461Y1287157D01*
X974539D01*
X975809Y1285887D01*
Y1283348D01*
X974539Y1282078D01*
X968191Y1274461D02*
Y1279539D01*
X972000D01*
X970730Y1277000D01*
Y1275730D01*
X972000Y1274461D01*
X974539D01*
X975809Y1275730D01*
Y1278270D01*
X974539Y1279539D01*
X969461Y1271922D02*
X968191Y1270652D01*
Y1268113D01*
X969461Y1266843D01*
X970730D01*
X972000Y1268113D01*
Y1269382D01*
Y1268113D01*
X973270Y1266843D01*
X974539D01*
X975809Y1268113D01*
Y1270652D01*
X974539Y1271922D01*
X815539Y1233922D02*
X816809Y1232652D01*
Y1230113D01*
X815539Y1228843D01*
X810461D01*
X809191Y1230113D01*
Y1232652D01*
X810461Y1233922D01*
X809191Y1236461D02*
X816809D01*
X809191Y1241539D01*
X816809D01*
Y1249157D02*
Y1244078D01*
X813000D01*
X814270Y1246618D01*
Y1247887D01*
X813000Y1249157D01*
X810461D01*
X809191Y1247887D01*
Y1245348D01*
X810461Y1244078D01*
X804348Y1278809D02*
Y1271191D01*
X800539D01*
X799270Y1272461D01*
Y1277539D01*
X800539Y1278809D01*
X804348D01*
X792922Y1271191D02*
Y1278809D01*
X796730Y1275000D01*
X791652D01*
X739922Y1307191D02*
X745000Y1314809D01*
Y1307191D02*
X739922Y1314809D01*
X747539D02*
X750078D01*
X748809D01*
Y1307191D01*
X747539Y1308461D01*
X720461Y1354809D02*
X719191Y1356078D01*
Y1358618D01*
X720461Y1359887D01*
X725539D01*
X726809Y1358618D01*
Y1356078D01*
X725539Y1354809D01*
X726809Y1347191D02*
Y1352270D01*
X721730Y1347191D01*
X720461D01*
X719191Y1348461D01*
Y1351000D01*
X720461Y1352270D01*
X726809Y1344652D02*
Y1342113D01*
Y1343383D01*
X719191D01*
X720461Y1344652D01*
X709809Y1356348D02*
X702191D01*
Y1352539D01*
X703461Y1351270D01*
X706000D01*
X707270Y1352539D01*
Y1356348D01*
Y1353809D02*
X709809Y1351270D01*
X708539Y1348730D02*
X709809Y1347461D01*
Y1344922D01*
X708539Y1343652D01*
X703461D01*
X702191Y1344922D01*
Y1347461D01*
X703461Y1348730D01*
X704730D01*
X706000Y1347461D01*
Y1343652D01*
X853191Y1279478D02*
X860809D01*
Y1283287D01*
X859539Y1284556D01*
X857000D01*
X855730Y1283287D01*
Y1279478D01*
Y1282017D02*
X853191Y1284556D01*
Y1287096D02*
Y1289635D01*
Y1288365D01*
X860809D01*
X859539Y1287096D01*
Y1293444D02*
X860809Y1294713D01*
Y1297252D01*
X859539Y1298522D01*
X858270D01*
X857000Y1297252D01*
X855730Y1298522D01*
X854461D01*
X853191Y1297252D01*
Y1294713D01*
X854461Y1293444D01*
X855730D01*
X857000Y1294713D01*
X858270Y1293444D01*
X859539D01*
X857000Y1294713D02*
Y1297252D01*
X813078Y1384539D02*
X814348Y1385809D01*
X816887D01*
X818157Y1384539D01*
Y1379461D01*
X816887Y1378191D01*
X814348D01*
X813078Y1379461D01*
X810539Y1384539D02*
X809270Y1385809D01*
X806730D01*
X805461Y1384539D01*
Y1383270D01*
X806730Y1382000D01*
X808000D01*
X806730D01*
X805461Y1380730D01*
Y1379461D01*
X806730Y1378191D01*
X809270D01*
X810539Y1379461D01*
X802922Y1384539D02*
X801652Y1385809D01*
X799113D01*
X797843Y1384539D01*
Y1379461D01*
X799113Y1378191D01*
X801652D01*
X802922Y1379461D01*
Y1384539D01*
X731461Y1419078D02*
X730191Y1420348D01*
Y1422887D01*
X731461Y1424157D01*
X736539D01*
X737809Y1422887D01*
Y1420348D01*
X736539Y1419078D01*
X737809Y1411461D02*
Y1416539D01*
X732730Y1411461D01*
X731461D01*
X730191Y1412730D01*
Y1415270D01*
X731461Y1416539D01*
X736539Y1408922D02*
X737809Y1407652D01*
Y1405113D01*
X736539Y1403843D01*
X731461D01*
X730191Y1405113D01*
Y1407652D01*
X731461Y1408922D01*
X732730D01*
X734000Y1407652D01*
Y1403843D01*
X788809Y1395522D02*
X781191D01*
Y1391713D01*
X782461Y1390444D01*
X785000D01*
X786270Y1391713D01*
Y1395522D01*
Y1392983D02*
X788809Y1390444D01*
Y1387904D02*
Y1385365D01*
Y1386635D01*
X781191D01*
X782461Y1387904D01*
X788809Y1376478D02*
Y1381556D01*
X783730Y1376478D01*
X782461D01*
X781191Y1377748D01*
Y1380287D01*
X782461Y1381556D01*
X690539Y1344922D02*
X691809Y1343652D01*
Y1341113D01*
X690539Y1339843D01*
X685461D01*
X684191Y1341113D01*
Y1343652D01*
X685461Y1344922D01*
X691809Y1352539D02*
Y1347461D01*
X688000D01*
X689270Y1350000D01*
Y1351270D01*
X688000Y1352539D01*
X685461D01*
X684191Y1351270D01*
Y1348730D01*
X685461Y1347461D01*
X691809Y1355078D02*
Y1360157D01*
X690539D01*
X685461Y1355078D01*
X684191D01*
X701922Y1427461D02*
X700652Y1426191D01*
X698113D01*
X696843Y1427461D01*
Y1432539D01*
X698113Y1433809D01*
X700652D01*
X701922Y1432539D01*
X709539Y1426191D02*
X704461D01*
Y1430000D01*
X707000Y1428730D01*
X708270D01*
X709539Y1430000D01*
Y1432539D01*
X708270Y1433809D01*
X705730D01*
X704461Y1432539D01*
X712078D02*
X713348Y1433809D01*
X715887D01*
X717157Y1432539D01*
Y1427461D01*
X715887Y1426191D01*
X713348D01*
X712078Y1427461D01*
Y1428730D01*
X713348Y1430000D01*
X717157D01*
X701922Y1410461D02*
X700652Y1409191D01*
X698113D01*
X696843Y1410461D01*
Y1415539D01*
X698113Y1416809D01*
X700652D01*
X701922Y1415539D01*
X709539Y1409191D02*
X704461D01*
Y1413000D01*
X707000Y1411730D01*
X708270D01*
X709539Y1413000D01*
Y1415539D01*
X708270Y1416809D01*
X705730D01*
X704461Y1415539D01*
X712078Y1410461D02*
X713348Y1409191D01*
X715887D01*
X717157Y1410461D01*
Y1411730D01*
X715887Y1413000D01*
X717157Y1414270D01*
Y1415539D01*
X715887Y1416809D01*
X713348D01*
X712078Y1415539D01*
Y1414270D01*
X713348Y1413000D01*
X712078Y1411730D01*
Y1410461D01*
X713348Y1413000D02*
X715887D01*
X701922Y1443461D02*
X700652Y1442191D01*
X698113D01*
X696843Y1443461D01*
Y1448539D01*
X698113Y1449809D01*
X700652D01*
X701922Y1448539D01*
X709539Y1442191D02*
X707000Y1443461D01*
X704461Y1446000D01*
Y1448539D01*
X705730Y1449809D01*
X708270D01*
X709539Y1448539D01*
Y1447270D01*
X708270Y1446000D01*
X704461D01*
X712078Y1443461D02*
X713348Y1442191D01*
X715887D01*
X717157Y1443461D01*
Y1448539D01*
X715887Y1449809D01*
X713348D01*
X712078Y1448539D01*
Y1443461D01*
X755922Y1713461D02*
X754652Y1712191D01*
X752113D01*
X750843Y1713461D01*
Y1718539D01*
X752113Y1719809D01*
X754652D01*
X755922Y1718539D01*
X758461Y1713461D02*
X759730Y1712191D01*
X762270D01*
X763539Y1713461D01*
Y1714730D01*
X762270Y1716000D01*
X761000D01*
X762270D01*
X763539Y1717270D01*
Y1718539D01*
X762270Y1719809D01*
X759730D01*
X758461Y1718539D01*
X771157Y1719809D02*
X766078D01*
X771157Y1714730D01*
Y1713461D01*
X769887Y1712191D01*
X767348D01*
X766078Y1713461D01*
X783478Y1611809D02*
Y1604191D01*
X787287D01*
X788556Y1605461D01*
Y1608000D01*
X787287Y1609270D01*
X783478D01*
X786017D02*
X788556Y1611809D01*
X791096D02*
X793635D01*
X792365D01*
Y1604191D01*
X791096Y1605461D01*
X797444D02*
X798713Y1604191D01*
X801252D01*
X802522Y1605461D01*
Y1606730D01*
X801252Y1608000D01*
X799983D01*
X801252D01*
X802522Y1609270D01*
Y1610539D01*
X801252Y1611809D01*
X798713D01*
X797444Y1610539D01*
X752478Y1611809D02*
Y1604191D01*
X756287D01*
X757556Y1605461D01*
Y1608000D01*
X756287Y1609270D01*
X752478D01*
X755017D02*
X757556Y1611809D01*
X760096D02*
X762635D01*
X761365D01*
Y1604191D01*
X760096Y1605461D01*
X770252Y1611809D02*
Y1604191D01*
X766444Y1608000D01*
X771522D01*
X836348Y1694809D02*
Y1688461D01*
X835078Y1687191D01*
X832539D01*
X831270Y1688461D01*
Y1694809D01*
X823652Y1687191D02*
X828730D01*
X823652Y1692270D01*
Y1693539D01*
X824922Y1694809D01*
X827461D01*
X828730Y1693539D01*
X879539Y1637556D02*
X880809Y1636287D01*
Y1633748D01*
X879539Y1632478D01*
X874461D01*
X873191Y1633748D01*
Y1636287D01*
X874461Y1637556D01*
X873191Y1640096D02*
Y1642635D01*
Y1641365D01*
X880809D01*
X879539Y1640096D01*
Y1646444D02*
X880809Y1647713D01*
Y1650252D01*
X879539Y1651522D01*
X874461D01*
X873191Y1650252D01*
Y1647713D01*
X874461Y1646444D01*
X879539D01*
X1385843Y1505809D02*
Y1498191D01*
X1389652D01*
X1390922Y1499461D01*
Y1502000D01*
X1389652Y1503270D01*
X1385843D01*
X1388383D02*
X1390922Y1505809D01*
X1393461Y1499461D02*
X1394730Y1498191D01*
X1397270D01*
X1398539Y1499461D01*
Y1500730D01*
X1397270Y1502000D01*
X1396000D01*
X1397270D01*
X1398539Y1503270D01*
Y1504539D01*
X1397270Y1505809D01*
X1394730D01*
X1393461Y1504539D01*
X1406157Y1498191D02*
X1403618Y1499461D01*
X1401078Y1502000D01*
Y1504539D01*
X1402348Y1505809D01*
X1404887D01*
X1406157Y1504539D01*
Y1503270D01*
X1404887Y1502000D01*
X1401078D01*
X1406157Y1359191D02*
Y1366809D01*
X1402348D01*
X1401078Y1365539D01*
Y1363000D01*
X1402348Y1361730D01*
X1406157D01*
X1403618D02*
X1401078Y1359191D01*
X1398539Y1365539D02*
X1397270Y1366809D01*
X1394730D01*
X1393461Y1365539D01*
Y1364270D01*
X1394730Y1363000D01*
X1396000D01*
X1394730D01*
X1393461Y1361730D01*
Y1360461D01*
X1394730Y1359191D01*
X1397270D01*
X1398539Y1360461D01*
X1390922Y1366809D02*
X1385843D01*
Y1365539D01*
X1390922Y1360461D01*
Y1359191D01*
X1389843Y1641809D02*
Y1634191D01*
X1393652D01*
X1394922Y1635461D01*
Y1638000D01*
X1393652Y1639270D01*
X1389843D01*
X1392383D02*
X1394922Y1641809D01*
X1397461Y1635461D02*
X1398730Y1634191D01*
X1401270D01*
X1402539Y1635461D01*
Y1636730D01*
X1401270Y1638000D01*
X1400000D01*
X1401270D01*
X1402539Y1639270D01*
Y1640539D01*
X1401270Y1641809D01*
X1398730D01*
X1397461Y1640539D01*
X1410157Y1634191D02*
X1405078D01*
Y1638000D01*
X1407618Y1636730D01*
X1408887D01*
X1410157Y1638000D01*
Y1640539D01*
X1408887Y1641809D01*
X1406348D01*
X1405078Y1640539D01*
X1408157Y1446191D02*
Y1453809D01*
X1404348D01*
X1403078Y1452539D01*
Y1450000D01*
X1404348Y1448730D01*
X1408157D01*
X1405618D02*
X1403078Y1446191D01*
X1395461D02*
X1400539D01*
X1395461Y1451270D01*
Y1452539D01*
X1396730Y1453809D01*
X1399270D01*
X1400539Y1452539D01*
X1392922D02*
X1391652Y1453809D01*
X1389113D01*
X1387843Y1452539D01*
Y1451270D01*
X1389113Y1450000D01*
X1387843Y1448730D01*
Y1447461D01*
X1389113Y1446191D01*
X1391652D01*
X1392922Y1447461D01*
Y1448730D01*
X1391652Y1450000D01*
X1392922Y1451270D01*
Y1452539D01*
X1391652Y1450000D02*
X1389113D01*
X1403157Y1307191D02*
Y1314809D01*
X1399348D01*
X1398078Y1313539D01*
Y1311000D01*
X1399348Y1309730D01*
X1403157D01*
X1400618D02*
X1398078Y1307191D01*
X1390461D02*
X1395539D01*
X1390461Y1312270D01*
Y1313539D01*
X1391730Y1314809D01*
X1394270D01*
X1395539Y1313539D01*
X1387922Y1308461D02*
X1386652Y1307191D01*
X1384113D01*
X1382843Y1308461D01*
Y1313539D01*
X1384113Y1314809D01*
X1386652D01*
X1387922Y1313539D01*
Y1312270D01*
X1386652Y1311000D01*
X1382843D01*
X1385157Y1601191D02*
Y1608809D01*
X1381348D01*
X1380078Y1607539D01*
Y1605000D01*
X1381348Y1603730D01*
X1385157D01*
X1382617D02*
X1380078Y1601191D01*
X1372461D02*
X1377539D01*
X1372461Y1606270D01*
Y1607539D01*
X1373730Y1608809D01*
X1376270D01*
X1377539Y1607539D01*
X1369922Y1608809D02*
X1364843D01*
Y1607539D01*
X1369922Y1602461D01*
Y1601191D01*
X1433157Y1446191D02*
Y1453809D01*
X1429348D01*
X1428078Y1452539D01*
Y1450000D01*
X1429348Y1448730D01*
X1433157D01*
X1430618D02*
X1428078Y1446191D01*
X1425539Y1452539D02*
X1424270Y1453809D01*
X1421730D01*
X1420461Y1452539D01*
Y1451270D01*
X1421730Y1450000D01*
X1423000D01*
X1421730D01*
X1420461Y1448730D01*
Y1447461D01*
X1421730Y1446191D01*
X1424270D01*
X1425539Y1447461D01*
X1417922Y1452539D02*
X1416652Y1453809D01*
X1414113D01*
X1412843Y1452539D01*
Y1451270D01*
X1414113Y1450000D01*
X1415382D01*
X1414113D01*
X1412843Y1448730D01*
Y1447461D01*
X1414113Y1446191D01*
X1416652D01*
X1417922Y1447461D01*
X1428157Y1307191D02*
Y1314809D01*
X1424348D01*
X1423078Y1313539D01*
Y1311000D01*
X1424348Y1309730D01*
X1428157D01*
X1425618D02*
X1423078Y1307191D01*
X1420539Y1313539D02*
X1419270Y1314809D01*
X1416730D01*
X1415461Y1313539D01*
Y1312270D01*
X1416730Y1311000D01*
X1418000D01*
X1416730D01*
X1415461Y1309730D01*
Y1308461D01*
X1416730Y1307191D01*
X1419270D01*
X1420539Y1308461D01*
X1409113Y1307191D02*
Y1314809D01*
X1412922Y1311000D01*
X1407843D01*
X1430157Y1586191D02*
Y1593809D01*
X1426348D01*
X1425078Y1592539D01*
Y1590000D01*
X1426348Y1588730D01*
X1430157D01*
X1427617D02*
X1425078Y1586191D01*
X1422539Y1592539D02*
X1421270Y1593809D01*
X1418730D01*
X1417461Y1592539D01*
Y1591270D01*
X1418730Y1590000D01*
X1420000D01*
X1418730D01*
X1417461Y1588730D01*
Y1587461D01*
X1418730Y1586191D01*
X1421270D01*
X1422539Y1587461D01*
X1409843Y1586191D02*
X1414922D01*
X1409843Y1591270D01*
Y1592539D01*
X1411113Y1593809D01*
X1413652D01*
X1414922Y1592539D01*
X905766Y1718308D02*
X907035Y1719577D01*
X909574D01*
X910844Y1718308D01*
Y1713230D01*
X909574Y1711960D01*
X907035D01*
X905766Y1713230D01*
X898148Y1711960D02*
X903226D01*
X898148Y1717038D01*
Y1718308D01*
X899418Y1719577D01*
X901957D01*
X903226Y1718308D01*
X895609D02*
X894339Y1719577D01*
X891800D01*
X890531Y1718308D01*
Y1713230D01*
X891800Y1711960D01*
X894339D01*
X895609Y1713230D01*
Y1718308D01*
X934922Y1269461D02*
X933652Y1268191D01*
X931113D01*
X929843Y1269461D01*
Y1274539D01*
X931113Y1275809D01*
X933652D01*
X934922Y1274539D01*
X942539Y1268191D02*
X937461D01*
Y1272000D01*
X940000Y1270730D01*
X941270D01*
X942539Y1272000D01*
Y1274539D01*
X941270Y1275809D01*
X938730D01*
X937461Y1274539D01*
X950157Y1268191D02*
X947618Y1269461D01*
X945078Y1272000D01*
Y1274539D01*
X946348Y1275809D01*
X948887D01*
X950157Y1274539D01*
Y1273270D01*
X948887Y1272000D01*
X945078D01*
D12*
X1020398Y1763141D02*
X1025476D01*
Y1755524D01*
X1020398D01*
X1025476Y1759333D02*
X1022937D01*
X1017859Y1763141D02*
Y1755524D01*
X1012780D01*
X1010241Y1763141D02*
Y1755524D01*
Y1758063D01*
X1005163Y1763141D01*
X1008971Y1759333D01*
X1005163Y1755524D01*
X1002623D02*
Y1756794D01*
X1001354D01*
Y1755524D01*
X1002623D01*
X996275D02*
Y1763141D01*
X992467D01*
X991197Y1761872D01*
Y1759333D01*
X992467Y1758063D01*
X996275D01*
X983580Y1761872D02*
X984849Y1763141D01*
X987388D01*
X988658Y1761872D01*
Y1756794D01*
X987388Y1755524D01*
X984849D01*
X983580Y1756794D01*
X981040Y1763141D02*
Y1755524D01*
X977232D01*
X975962Y1756794D01*
Y1758063D01*
X977232Y1759333D01*
X981040D01*
X977232D01*
X975962Y1760602D01*
Y1761872D01*
X977232Y1763141D01*
X981040D01*
X973423Y1755524D02*
Y1756794D01*
X972153D01*
Y1755524D01*
X973423D01*
X967075Y1761872D02*
X965805Y1763141D01*
X963266D01*
X961997Y1761872D01*
Y1756794D01*
X963266Y1755524D01*
X965805D01*
X967075Y1756794D01*
Y1761872D01*
X959457D02*
X958188Y1763141D01*
X955649D01*
X954379Y1761872D01*
Y1756794D01*
X955649Y1755524D01*
X958188D01*
X959457Y1756794D01*
Y1761872D01*
X951840D02*
X950570Y1763141D01*
X948031D01*
X946761Y1761872D01*
Y1756794D01*
X948031Y1755524D01*
X950570D01*
X951840Y1756794D01*
Y1761872D01*
X944222Y1755524D02*
X941683D01*
X942953D01*
Y1763141D01*
X944222Y1761872D01*
X937874Y1755524D02*
Y1756794D01*
X936605D01*
Y1755524D01*
X937874D01*
X931526Y1761872D02*
X930257Y1763141D01*
X927718D01*
X926448Y1761872D01*
Y1756794D01*
X927718Y1755524D01*
X930257D01*
X931526Y1756794D01*
Y1761872D01*
X923909D02*
X922639Y1763141D01*
X920100D01*
X918830Y1761872D01*
Y1756794D01*
X920100Y1755524D01*
X922639D01*
X923909Y1756794D01*
Y1761872D01*
X916291D02*
X915022Y1763141D01*
X912483D01*
X911213Y1761872D01*
Y1756794D01*
X912483Y1755524D01*
X915022D01*
X916291Y1756794D01*
Y1761872D01*
X908674Y1755524D02*
X906135D01*
X907404D01*
Y1763141D01*
X908674Y1761872D01*
X902326Y1755524D02*
Y1756794D01*
X901056D01*
Y1755524D01*
X902326D01*
X895978D02*
Y1760602D01*
X893439Y1763141D01*
X890900Y1760602D01*
Y1755524D01*
Y1759333D01*
X895978D01*
X888360Y1755524D02*
Y1756794D01*
X887091D01*
Y1755524D01*
X888360D01*
X882012D02*
Y1760602D01*
X879473Y1763141D01*
X876934Y1760602D01*
Y1755524D01*
Y1759333D01*
X882012D01*
X825602Y1262872D02*
X824333Y1264141D01*
X821794D01*
X820524Y1262872D01*
Y1257794D01*
X821794Y1256524D01*
X824333D01*
X825602Y1257794D01*
Y1260333D01*
X823063D01*
X828141Y1256524D02*
Y1264141D01*
X833220Y1256524D01*
Y1264141D01*
X835759D02*
Y1256524D01*
X839568D01*
X840837Y1257794D01*
Y1262872D01*
X839568Y1264141D01*
X835759D01*
X912858Y1277602D02*
Y1272524D01*
X916667D01*
X915398Y1275063D01*
Y1276333D01*
X916667Y1277602D01*
X919206D01*
X920476Y1276333D01*
Y1273794D01*
X919206Y1272524D01*
X912858Y1280142D02*
X917937D01*
X920476Y1282681D01*
X917937Y1285220D01*
X912858D01*
X873858Y1276602D02*
X872589Y1275333D01*
Y1272794D01*
X873858Y1271524D01*
X878937D01*
X880206Y1272794D01*
Y1275333D01*
X878937Y1276602D01*
X880206Y1279141D02*
X875128D01*
X872589Y1281681D01*
X875128Y1284220D01*
X880206D01*
X876398D01*
Y1279141D01*
X880206Y1286759D02*
X872589D01*
X880206Y1291837D01*
X872589D01*
X881476Y1294377D02*
Y1299455D01*
X872589Y1301994D02*
X880206D01*
Y1307072D01*
X895859Y1276602D02*
X894589Y1275333D01*
Y1272794D01*
X895859Y1271524D01*
X900937D01*
X902206Y1272794D01*
Y1275333D01*
X900937Y1276602D01*
X902206Y1279141D02*
X897128D01*
X894589Y1281681D01*
X897128Y1284220D01*
X902206D01*
X898398D01*
Y1279141D01*
X902206Y1286759D02*
X894589D01*
X902206Y1291837D01*
X894589D01*
X903476Y1294377D02*
Y1299455D01*
X894589Y1301994D02*
X902206D01*
X898398D01*
Y1307072D01*
X894589D01*
X902206D01*
X749602Y1422872D02*
X748333Y1424142D01*
X745794D01*
X744524Y1422872D01*
Y1417794D01*
X745794Y1416524D01*
X748333D01*
X749602Y1417794D01*
Y1420333D01*
X747063D01*
X752141Y1416524D02*
Y1424142D01*
X757220Y1416524D01*
Y1424142D01*
X759759D02*
Y1416524D01*
X763568D01*
X764837Y1417794D01*
Y1422872D01*
X763568Y1424142D01*
X759759D01*
X772524Y1416524D02*
Y1424142D01*
X776333D01*
X777602Y1422872D01*
Y1420333D01*
X776333Y1419063D01*
X772524D01*
X775063D02*
X777602Y1416524D01*
X785220Y1422872D02*
X783950Y1424142D01*
X781411D01*
X780142Y1422872D01*
Y1421602D01*
X781411Y1420333D01*
X783950D01*
X785220Y1419063D01*
Y1417794D01*
X783950Y1416524D01*
X781411D01*
X780142Y1417794D01*
X787759Y1424142D02*
X792837D01*
X790298D01*
Y1416524D01*
X800524Y1601142D02*
Y1593524D01*
X804333D01*
X805602Y1594794D01*
Y1596063D01*
X804333Y1597333D01*
X800524D01*
X804333D01*
X805602Y1598602D01*
Y1599872D01*
X804333Y1601142D01*
X800524D01*
X811950D02*
X809411D01*
X808141Y1599872D01*
Y1594794D01*
X809411Y1593524D01*
X811950D01*
X813220Y1594794D01*
Y1599872D01*
X811950Y1601142D01*
X819568D02*
X817029D01*
X815759Y1599872D01*
Y1594794D01*
X817029Y1593524D01*
X819568D01*
X820837Y1594794D01*
Y1599872D01*
X819568Y1601142D01*
X823377D02*
X828455D01*
X825916D01*
Y1593524D01*
X873524Y1596872D02*
X874794Y1598141D01*
X877333D01*
X878602Y1596872D01*
Y1595602D01*
X877333Y1594333D01*
X876063D01*
X877333D01*
X878602Y1593063D01*
Y1591794D01*
X877333Y1590524D01*
X874794D01*
X873524Y1591794D01*
X881142Y1598141D02*
Y1593063D01*
X883681Y1590524D01*
X886220Y1593063D01*
Y1598141D01*
X888759Y1596872D02*
X890029Y1598141D01*
X892568D01*
X893837Y1596872D01*
Y1595602D01*
X892568Y1594333D01*
X891298D01*
X892568D01*
X893837Y1593063D01*
Y1591794D01*
X892568Y1590524D01*
X890029D01*
X888759Y1591794D01*
X689553Y1554257D02*
X690822Y1555526D01*
X693362D01*
X694631Y1554257D01*
Y1552987D01*
X693362Y1551718D01*
X692092D01*
X693362D01*
X694631Y1550448D01*
Y1549178D01*
X693362Y1547909D01*
X690822D01*
X689553Y1549178D01*
X697170Y1555526D02*
Y1550448D01*
X699709Y1547909D01*
X702249Y1550448D01*
Y1555526D01*
X704788Y1554257D02*
X706057Y1555526D01*
X708597D01*
X709866Y1554257D01*
Y1552987D01*
X708597Y1551718D01*
X707327D01*
X708597D01*
X709866Y1550448D01*
Y1549178D01*
X708597Y1547909D01*
X706057D01*
X704788Y1549178D01*
X695374Y1465989D02*
X694104Y1467258D01*
X691565D01*
X690295Y1465989D01*
Y1460910D01*
X691565Y1459641D01*
X694104D01*
X695374Y1460910D01*
Y1463450D01*
X692834D01*
X697913Y1459641D02*
Y1467258D01*
X702991Y1459641D01*
Y1467258D01*
X705530D02*
Y1459641D01*
X709339D01*
X710609Y1460910D01*
Y1465989D01*
X709339Y1467258D01*
X705530D01*
X697602Y1490872D02*
X696333Y1492142D01*
X693794D01*
X692524Y1490872D01*
Y1489602D01*
X693794Y1488333D01*
X696333D01*
X697602Y1487063D01*
Y1485794D01*
X696333Y1484524D01*
X693794D01*
X692524Y1485794D01*
X700142Y1492142D02*
Y1484524D01*
X702681Y1487063D01*
X705220Y1484524D01*
Y1492142D01*
X712837Y1490872D02*
X711568Y1492142D01*
X709029D01*
X707759Y1490872D01*
Y1485794D01*
X709029Y1484524D01*
X711568D01*
X712837Y1485794D01*
X715377Y1492142D02*
Y1484524D01*
X720455D01*
X722994Y1492142D02*
Y1484524D01*
Y1487063D01*
X728073Y1492142D01*
X724264Y1488333D01*
X728073Y1484524D01*
X697602Y1509872D02*
X696333Y1511142D01*
X693794D01*
X692524Y1509872D01*
Y1508602D01*
X693794Y1507333D01*
X696333D01*
X697602Y1506063D01*
Y1504794D01*
X696333Y1503524D01*
X693794D01*
X692524Y1504794D01*
X700142Y1511142D02*
Y1503524D01*
X702681Y1506063D01*
X705220Y1503524D01*
Y1511142D01*
X707759D02*
X710298D01*
X709029D01*
Y1503524D01*
X707759D01*
X710298D01*
X717916Y1511142D02*
X715377D01*
X714107Y1509872D01*
Y1504794D01*
X715377Y1503524D01*
X717916D01*
X719185Y1504794D01*
Y1509872D01*
X717916Y1511142D01*
M02*
