G04*
G04 #@! TF.GenerationSoftware,Altium Limited,Altium Designer,23.3.1 (30)*
G04*
G04 Layer_Color=16711935*
%FSLAX44Y44*%
%MOMM*%
G71*
G04*
G04 #@! TF.SameCoordinates,D690764C-15D9-45C2-B971-25477444B052*
G04*
G04*
G04 #@! TF.FilePolarity,Negative*
G04*
G01*
G75*
%ADD39R,1.4032X1.6032*%
%ADD44R,1.2032X0.9032*%
%ADD45R,3.0000X3.0000*%
%ADD46C,3.0000*%
%ADD48R,0.9032X1.2032*%
%ADD52R,1.6032X1.5032*%
%ADD53R,0.8032X1.3032*%
%ADD55R,1.6032X1.4032*%
%ADD57R,2.2032X1.9032*%
%ADD59R,1.6532X4.0032*%
%ADD60R,1.2032X2.9032*%
%ADD66C,0.2032*%
%ADD67C,5.2032*%
%ADD86R,1.3032X0.8032*%
%ADD87R,1.2032X1.2032*%
%ADD88R,1.3032X2.2032*%
%ADD89R,1.9532X0.8532*%
%ADD90R,1.4032X0.5032*%
%ADD91R,0.5032X1.4032*%
%ADD92R,0.9032X0.8032*%
%ADD93R,6.2032X2.2032*%
D39*
X962000Y1526000D02*
D03*
X981000D02*
D03*
X907500Y1603000D02*
D03*
X926500D02*
D03*
X906500Y1623000D02*
D03*
X925500D02*
D03*
X910500Y1446000D02*
D03*
X929500D02*
D03*
X910500Y1426000D02*
D03*
X929500D02*
D03*
X961500Y1350000D02*
D03*
X980500D02*
D03*
X1053500Y1186000D02*
D03*
X1072500D02*
D03*
D44*
X674000Y1631000D02*
D03*
Y1647000D02*
D03*
X690000Y1631000D02*
D03*
Y1647000D02*
D03*
X706000Y1631000D02*
D03*
Y1647000D02*
D03*
X929000Y1641000D02*
D03*
Y1657000D02*
D03*
X810000Y1568000D02*
D03*
Y1584000D02*
D03*
X695000Y1522000D02*
D03*
Y1538000D02*
D03*
X713000Y1538000D02*
D03*
Y1522000D02*
D03*
X722000Y1391000D02*
D03*
Y1375000D02*
D03*
X706000D02*
D03*
Y1391000D02*
D03*
X840000Y1279000D02*
D03*
Y1295000D02*
D03*
X768000Y1375000D02*
D03*
Y1391000D02*
D03*
X690000Y1375000D02*
D03*
Y1391000D02*
D03*
X877000Y1663000D02*
D03*
Y1679000D02*
D03*
D45*
X797000Y1193000D02*
D03*
X1360000Y1744000D02*
D03*
D46*
X760996Y1193000D02*
D03*
X1322996Y1743997D02*
D03*
D48*
X1429000Y1623000D02*
D03*
X1445000D02*
D03*
X1427410Y1484970D02*
D03*
X1443410D02*
D03*
X1427201Y1345811D02*
D03*
X1443201D02*
D03*
X1287249Y1217030D02*
D03*
X1271249D02*
D03*
X821000Y1365000D02*
D03*
X837000D02*
D03*
X737000Y1375000D02*
D03*
X753000D02*
D03*
X864000Y1544000D02*
D03*
X848000D02*
D03*
X864000Y1560000D02*
D03*
X848000D02*
D03*
X864000Y1576000D02*
D03*
X848000D02*
D03*
X855000Y1611000D02*
D03*
X839000D02*
D03*
X872000Y1458000D02*
D03*
X888000D02*
D03*
X805000Y1365000D02*
D03*
X789000D02*
D03*
X737000Y1391000D02*
D03*
X753000D02*
D03*
X670000Y1429000D02*
D03*
X686000D02*
D03*
X670000Y1413000D02*
D03*
X686000D02*
D03*
X670000Y1445000D02*
D03*
X686000D02*
D03*
X765000Y1698000D02*
D03*
X749000D02*
D03*
X784000Y1624000D02*
D03*
X800000D02*
D03*
X770000D02*
D03*
X754000D02*
D03*
X1396271Y1344891D02*
D03*
X1412271D02*
D03*
X1397239Y1484817D02*
D03*
X1413239D02*
D03*
X1398000Y1623000D02*
D03*
X1414000D02*
D03*
X1426290Y1329026D02*
D03*
X1442290D02*
D03*
X1427530Y1468690D02*
D03*
X1443530D02*
D03*
X1428366Y1607091D02*
D03*
X1444366D02*
D03*
X1412500Y1329000D02*
D03*
X1396500D02*
D03*
X1413500Y1468690D02*
D03*
X1397500D02*
D03*
X1414000Y1607000D02*
D03*
X1398000D02*
D03*
X931000Y1256000D02*
D03*
X947000D02*
D03*
X897000Y1697000D02*
D03*
X913000D02*
D03*
D52*
X931000Y1692500D02*
D03*
Y1673500D02*
D03*
D53*
X912500Y1653000D02*
D03*
X903000D02*
D03*
X893500D02*
D03*
X912500Y1679000D02*
D03*
X893500D02*
D03*
X861500Y1653000D02*
D03*
X852000D02*
D03*
X842500D02*
D03*
X861500Y1679000D02*
D03*
X842500D02*
D03*
D55*
X992000Y1231000D02*
D03*
Y1250000D02*
D03*
X972000Y1231500D02*
D03*
Y1250500D02*
D03*
D57*
X673000Y1461900D02*
D03*
Y1487300D02*
D03*
Y1512700D02*
D03*
Y1538100D02*
D03*
D59*
X933000Y1192000D02*
D03*
X829000D02*
D03*
D60*
X911000Y1252000D02*
D03*
X891000D02*
D03*
X871000D02*
D03*
X851000D02*
D03*
D66*
X725142Y1734142D02*
D03*
X731000Y1720000D02*
D03*
X725142Y1705858D02*
D03*
X711000Y1700000D02*
D03*
X696858Y1705858D02*
D03*
X691000Y1720000D02*
D03*
X696858Y1734142D02*
D03*
X711000Y1740000D02*
D03*
X1425142Y1734142D02*
D03*
X1431000Y1720000D02*
D03*
X1425142Y1705858D02*
D03*
X1411000Y1700000D02*
D03*
X1396858Y1705858D02*
D03*
X1391000Y1720000D02*
D03*
X1396858Y1734142D02*
D03*
X1411000Y1740000D02*
D03*
X1425142Y1234142D02*
D03*
X1431000Y1220000D02*
D03*
X1425142Y1205858D02*
D03*
X1411000Y1200000D02*
D03*
X1396858Y1205858D02*
D03*
X1391000Y1220000D02*
D03*
X1396858Y1234142D02*
D03*
X1411000Y1240000D02*
D03*
X725142Y1234142D02*
D03*
X731000Y1220000D02*
D03*
X725142Y1205858D02*
D03*
X711000Y1200000D02*
D03*
X696858Y1205858D02*
D03*
X691000Y1220000D02*
D03*
X696858Y1234142D02*
D03*
X711000Y1240000D02*
D03*
D67*
Y1720000D02*
D03*
X1411000D02*
D03*
Y1220000D02*
D03*
X711000D02*
D03*
D86*
X1418963Y1638530D02*
D03*
Y1648030D02*
D03*
Y1657530D02*
D03*
X1444963Y1638530D02*
D03*
Y1657530D02*
D03*
X1417373Y1500500D02*
D03*
Y1510000D02*
D03*
Y1519500D02*
D03*
X1443373Y1500500D02*
D03*
Y1519500D02*
D03*
X1417165Y1361341D02*
D03*
Y1370841D02*
D03*
Y1380341D02*
D03*
X1443165Y1361341D02*
D03*
Y1380341D02*
D03*
X1297285Y1201500D02*
D03*
Y1192000D02*
D03*
Y1182500D02*
D03*
X1271285Y1201500D02*
D03*
Y1182500D02*
D03*
D87*
X752300Y1406000D02*
D03*
X777700D02*
D03*
X864700Y1596000D02*
D03*
X839300D02*
D03*
D88*
X707000Y1571000D02*
D03*
X690000D02*
D03*
X673000D02*
D03*
X707000Y1609000D02*
D03*
X690000D02*
D03*
X673000D02*
D03*
D89*
X748710Y1667265D02*
D03*
Y1654565D02*
D03*
Y1641865D02*
D03*
Y1679965D02*
D03*
X804710Y1641865D02*
D03*
Y1654565D02*
D03*
Y1667265D02*
D03*
Y1679965D02*
D03*
X981000Y1558600D02*
D03*
Y1571300D02*
D03*
Y1584000D02*
D03*
Y1545900D02*
D03*
X925000Y1584000D02*
D03*
Y1571300D02*
D03*
Y1558600D02*
D03*
Y1545900D02*
D03*
X981000Y1381000D02*
D03*
Y1393700D02*
D03*
Y1406400D02*
D03*
Y1368300D02*
D03*
X925000Y1406400D02*
D03*
Y1393700D02*
D03*
Y1381000D02*
D03*
Y1368300D02*
D03*
X1073000Y1216650D02*
D03*
Y1229350D02*
D03*
Y1242050D02*
D03*
Y1203950D02*
D03*
X1017000Y1242050D02*
D03*
Y1229350D02*
D03*
Y1216650D02*
D03*
Y1203950D02*
D03*
D90*
X824500Y1457500D02*
D03*
Y1462500D02*
D03*
Y1467500D02*
D03*
Y1472500D02*
D03*
Y1477500D02*
D03*
Y1482500D02*
D03*
Y1487500D02*
D03*
Y1492500D02*
D03*
Y1497500D02*
D03*
Y1502500D02*
D03*
Y1507500D02*
D03*
X739500Y1457500D02*
D03*
Y1512500D02*
D03*
Y1507500D02*
D03*
Y1502500D02*
D03*
Y1497500D02*
D03*
Y1492500D02*
D03*
Y1487500D02*
D03*
Y1482500D02*
D03*
Y1477500D02*
D03*
Y1472500D02*
D03*
Y1467500D02*
D03*
Y1462500D02*
D03*
X824500Y1512500D02*
D03*
D91*
X754500Y1527500D02*
D03*
X809500D02*
D03*
X804500D02*
D03*
X799500D02*
D03*
X794500D02*
D03*
X789500D02*
D03*
X784500D02*
D03*
X779500D02*
D03*
X774500D02*
D03*
X769500D02*
D03*
X764500D02*
D03*
X759500D02*
D03*
X804500Y1442500D02*
D03*
X799500D02*
D03*
X794500D02*
D03*
X789500D02*
D03*
X784500D02*
D03*
X779500D02*
D03*
X774500D02*
D03*
X769500D02*
D03*
X764500D02*
D03*
X759500D02*
D03*
X754500D02*
D03*
X809500D02*
D03*
D92*
X805000Y1287000D02*
D03*
X825000Y1277500D02*
D03*
Y1296500D02*
D03*
D93*
X858000Y1330000D02*
D03*
X768000D02*
D03*
M02*
