G04*
G04 #@! TF.GenerationSoftware,Altium Limited,Altium Designer,23.3.1 (30)*
G04*
G04 Layer_Color=8388736*
%FSLAX44Y44*%
%MOMM*%
G71*
G04*
G04 #@! TF.SameCoordinates,D690764C-15D9-45C2-B971-25477444B052*
G04*
G04*
G04 #@! TF.FilePolarity,Negative*
G04*
G01*
G75*
%ADD39R,1.4032X1.6032*%
%ADD40R,1.5032X1.6032*%
%ADD41R,1.7232X2.0032*%
%ADD42R,8.7032X11.4032*%
%ADD43R,3.4032X1.9532*%
%ADD44R,1.2032X0.9032*%
%ADD45R,3.0000X3.0000*%
%ADD46C,3.0000*%
%ADD47R,7.2032X10.2032*%
%ADD48R,0.9032X1.2032*%
%ADD49R,0.8032X0.4532*%
%ADD50R,1.6032X0.4532*%
%ADD51R,0.4532X0.8032*%
%ADD52R,1.6032X1.5032*%
%ADD53R,0.8032X1.3032*%
%ADD54R,2.0032X1.7232*%
%ADD55R,1.6032X1.4032*%
%ADD56R,4.3032X3.4032*%
%ADD57R,2.2032X1.9032*%
%ADD58R,1.6532X4.1032*%
%ADD59R,1.6532X4.0032*%
%ADD60R,1.2032X2.9032*%
%ADD61R,0.8032X0.9032*%
%ADD62R,0.8532X1.9532*%
%ADD63R,2.7032X1.9032*%
%ADD64R,6.4032X3.5032*%
%ADD65R,10.2032X7.2032*%
%ADD66C,0.2032*%
%ADD67C,5.2032*%
D39*
X1075500Y1585000D02*
D03*
X1106500D02*
D03*
X1323500Y1410500D02*
D03*
X1354500D02*
D03*
X1323500Y1236000D02*
D03*
X1354500D02*
D03*
X1075500D02*
D03*
X1106500D02*
D03*
X1323500Y1585000D02*
D03*
X1354500D02*
D03*
X1075500Y1410500D02*
D03*
X1106500D02*
D03*
X811500Y1533000D02*
D03*
X830500D02*
D03*
D40*
X1107500Y1564000D02*
D03*
X1088500D02*
D03*
X1355500Y1389500D02*
D03*
X1336500D02*
D03*
X1355500Y1215000D02*
D03*
X1336500D02*
D03*
X1107500D02*
D03*
X1088500D02*
D03*
X1355500Y1564000D02*
D03*
X1336500D02*
D03*
X1107500Y1389500D02*
D03*
X1088500D02*
D03*
D41*
X1072900Y1540000D02*
D03*
X1107100D02*
D03*
X1297100Y1372500D02*
D03*
X1262900D02*
D03*
X1355100Y1365500D02*
D03*
X1320900D02*
D03*
X1072900Y1714500D02*
D03*
X1107100D02*
D03*
X1297100Y1721500D02*
D03*
X1262900D02*
D03*
X1355100Y1714500D02*
D03*
X1320900D02*
D03*
X1355100Y1540000D02*
D03*
X1320900D02*
D03*
X1072900Y1365500D02*
D03*
X1107100D02*
D03*
X886900Y1453000D02*
D03*
X921100D02*
D03*
X854900Y1527000D02*
D03*
X889100D02*
D03*
X1049100Y1372500D02*
D03*
X1014900D02*
D03*
X1297100Y1547000D02*
D03*
X1262900D02*
D03*
X1049100D02*
D03*
X1014900D02*
D03*
X1049100Y1721500D02*
D03*
X1014900D02*
D03*
D42*
X1248750Y1475500D02*
D03*
Y1301000D02*
D03*
X1000750D02*
D03*
X1248750Y1650000D02*
D03*
X1000750Y1475500D02*
D03*
Y1650000D02*
D03*
D43*
X1351250Y1500900D02*
D03*
Y1450100D02*
D03*
Y1326400D02*
D03*
Y1275600D02*
D03*
X1103250Y1326400D02*
D03*
Y1275600D02*
D03*
X1351250Y1675400D02*
D03*
Y1624600D02*
D03*
X1103250Y1500900D02*
D03*
Y1450100D02*
D03*
Y1675400D02*
D03*
Y1624600D02*
D03*
D44*
X1133000Y1583000D02*
D03*
Y1567000D02*
D03*
X1131000Y1231000D02*
D03*
Y1215000D02*
D03*
X1376000Y1564000D02*
D03*
Y1548000D02*
D03*
X1133000Y1406000D02*
D03*
Y1390000D02*
D03*
X834000Y1597000D02*
D03*
Y1581000D02*
D03*
X788000Y1593000D02*
D03*
Y1577000D02*
D03*
X802000Y1406000D02*
D03*
Y1390000D02*
D03*
X786000Y1406000D02*
D03*
Y1390000D02*
D03*
X915000Y1434000D02*
D03*
Y1418000D02*
D03*
X1376000Y1389500D02*
D03*
Y1373500D02*
D03*
X790000Y1301000D02*
D03*
Y1317000D02*
D03*
D45*
X1197000Y1744000D02*
D03*
X797000Y1193000D02*
D03*
D46*
X1160997Y1744000D02*
D03*
X760996Y1193000D02*
D03*
D47*
X1162000Y1300000D02*
D03*
Y1474500D02*
D03*
Y1649000D02*
D03*
D48*
X846000Y1473000D02*
D03*
X862000D02*
D03*
X862000Y1489000D02*
D03*
X846000D02*
D03*
X819000Y1597000D02*
D03*
X803000D02*
D03*
X813000Y1515000D02*
D03*
X829000D02*
D03*
X819000Y1393000D02*
D03*
X835000D02*
D03*
X834000Y1257000D02*
D03*
X818000D02*
D03*
X899000Y1433000D02*
D03*
X883000D02*
D03*
X899000Y1417000D02*
D03*
X883000D02*
D03*
X1380000Y1276000D02*
D03*
X1396000D02*
D03*
X835000Y1377000D02*
D03*
X819000D02*
D03*
D49*
X804000Y1559000D02*
D03*
D50*
X818000D02*
D03*
X808000Y1564000D02*
D03*
X818000Y1569000D02*
D03*
D51*
X805500Y1550000D02*
D03*
X810500D02*
D03*
X815500D02*
D03*
X820500D02*
D03*
X805500Y1578000D02*
D03*
X810500D02*
D03*
X815500D02*
D03*
X820500D02*
D03*
D52*
X845000Y1452500D02*
D03*
Y1423500D02*
D03*
D53*
X814000Y1473000D02*
D03*
X823500D02*
D03*
X833000D02*
D03*
X814000Y1499000D02*
D03*
X833000D02*
D03*
X895500Y1507000D02*
D03*
X886000D02*
D03*
X876500D02*
D03*
X895500Y1481000D02*
D03*
X876500D02*
D03*
D54*
X794000Y1474900D02*
D03*
Y1509100D02*
D03*
X698000Y1423900D02*
D03*
Y1458100D02*
D03*
X722000Y1423900D02*
D03*
Y1458100D02*
D03*
X746000Y1423900D02*
D03*
Y1458100D02*
D03*
X770000Y1423900D02*
D03*
Y1458100D02*
D03*
X916000Y1512100D02*
D03*
Y1477900D02*
D03*
X854000Y1588100D02*
D03*
Y1553900D02*
D03*
X878000Y1588100D02*
D03*
Y1553900D02*
D03*
X902000Y1588100D02*
D03*
Y1553900D02*
D03*
D55*
X789000Y1558500D02*
D03*
Y1539500D02*
D03*
X864000Y1426500D02*
D03*
Y1445500D02*
D03*
D56*
X725000Y1493000D02*
D03*
Y1583000D02*
D03*
D57*
X672000Y1457700D02*
D03*
Y1432300D02*
D03*
D58*
X823000Y1441000D02*
D03*
X793000D02*
D03*
D59*
X829000Y1192000D02*
D03*
X933000D02*
D03*
D60*
X851000Y1252000D02*
D03*
X871000D02*
D03*
X891000D02*
D03*
X911000D02*
D03*
D61*
X881000Y1298000D02*
D03*
X890500Y1278000D02*
D03*
X871500D02*
D03*
D62*
X831350Y1301000D02*
D03*
X818650D02*
D03*
X805950D02*
D03*
X844050D02*
D03*
X805950Y1357000D02*
D03*
X818650D02*
D03*
X831350D02*
D03*
X844050D02*
D03*
D63*
X852000Y1625000D02*
D03*
X892000D02*
D03*
D64*
X801000Y1624500D02*
D03*
Y1707500D02*
D03*
D65*
X710000Y1297000D02*
D03*
X712000Y1643000D02*
D03*
D66*
X725142Y1734142D02*
D03*
X731000Y1720000D02*
D03*
X725142Y1705858D02*
D03*
X711000Y1700000D02*
D03*
X696858Y1705858D02*
D03*
X691000Y1720000D02*
D03*
X696858Y1734142D02*
D03*
X711000Y1740000D02*
D03*
X1425142Y1734142D02*
D03*
X1431000Y1720000D02*
D03*
X1425142Y1705858D02*
D03*
X1411000Y1700000D02*
D03*
X1396858Y1705858D02*
D03*
X1391000Y1720000D02*
D03*
X1396858Y1734142D02*
D03*
X1411000Y1740000D02*
D03*
X1425142Y1234142D02*
D03*
X1431000Y1220000D02*
D03*
X1425142Y1205858D02*
D03*
X1411000Y1200000D02*
D03*
X1396858Y1205858D02*
D03*
X1391000Y1220000D02*
D03*
X1396858Y1234142D02*
D03*
X1411000Y1240000D02*
D03*
X725142Y1234142D02*
D03*
X731000Y1220000D02*
D03*
X725142Y1205858D02*
D03*
X711000Y1200000D02*
D03*
X696858Y1205858D02*
D03*
X691000Y1220000D02*
D03*
X696858Y1234142D02*
D03*
X711000Y1240000D02*
D03*
D67*
Y1720000D02*
D03*
X1411000D02*
D03*
Y1220000D02*
D03*
X711000D02*
D03*
M02*
